<?xml version="1.0" encoding="utf-8"?>
<!-- Generator: Adobe Illustrator 17.1.0, SVG Export Plug-In . SVG Version: 6.00 Build 0)  -->
<!DOCTYPE svg PUBLIC "-//W3C//DTD SVG 1.1//EN" "http://www.w3.org/Graphics/SVG/1.1/DTD/svg11.dtd">
<svg version="1.1" id="Layer_1" xmlns="http://www.w3.org/2000/svg" xmlns:xlink="http://www.w3.org/1999/xlink" x="0px" y="0px"
	 viewBox="0 0 252 395.5" enable-background="new 0 0 252 395.5" xml:space="preserve">
<g>
	<rect x="7.275" y="7.841" opacity="0.85" fill="#FFFFFF" width="234.075" height="379.13"/>
	
		<text transform="matrix(1 0 0 1 37.0669 43.4932)" fill="#575756" font-family="'BrandonGrotesque-Black'" font-size="14" letter-spacing="1">IMPORTANT DATES</text>
	<g>
		<g>
			<polygon fill="#FFFFFF" points="114.463,10.394 114.13,5.041 122.942,3.956 130.942,4.358 144.632,4.358 149.888,4.358 
				155.953,4.648 160.817,4.648 165.505,5.041 165.505,10.26 154.148,10.769 149.63,9.519 135.255,9.79 126.538,9.79 
				118.353,10.394 			"/>
			<polygon points="114.13,10.019 123.005,9.269 131.505,9.644 135.755,9.644 140.88,9.644 145.005,9.644 148.505,9.269 
				154.88,10.019 161.255,9.644 165.505,10.065 165.505,11.565 160.63,11.144 155.755,11.269 152.88,11.269 149.13,10.394 
				146.38,10.394 143.63,10.394 137.13,10.394 132.13,10.394 126.755,10.394 122.505,10.394 114.13,11.519 			"/>
			<polygon points="114.13,4.269 123.005,3.519 131.505,3.894 135.755,3.894 140.88,3.894 145.005,3.894 148.505,3.519 
				154.88,4.269 161.255,3.894 165.505,4.315 165.505,5.769 160.63,5.394 155.755,5.519 152.88,5.519 149.13,4.644 146.38,4.644 
				143.63,4.644 137.13,4.644 132.13,4.644 126.755,4.644 122.505,4.644 114.13,5.769 			"/>
			<polygon points="114.13,5.769 114.13,10.019 114.796,10.019 114.549,5.684 			"/>
			<polygon points="116.193,5.433 115.833,10.007 116.415,9.966 116.68,5.379 			"/>
			<polygon points="117.772,5.106 118.298,9.79 118.934,9.745 118.353,5.041 			"/>
			<polygon points="119.934,4.671 119.961,9.638 120.526,9.641 120.452,4.648 			"/>
			<polygon points="121.55,4.594 122.1,9.531 122.662,9.474 122.063,4.516 			"/>
			<polygon points="124.061,4.419 123.692,9.556 124.275,9.511 124.548,4.358 			"/>
			<polygon points="125.953,4.503 125.731,9.474 126.366,9.522 126.538,4.522 			"/>
			<polygon points="128.074,4.474 127.314,9.558 127.873,9.644 128.591,4.527 			"/>
			<polygon points="129.993,4.512 129.758,9.762 130.322,9.787 130.512,4.508 			"/>
			<polygon points="132.503,4.426 132.134,10.162 132.717,10.111 132.99,4.358 			"/>
			<polygon points="134.394,4.52 134.172,10.069 134.808,10.124 134.979,4.542 			"/>
			<polygon points="136.516,4.487 135.756,10.164 136.314,10.26 137.032,4.546 			"/>
			<polygon points="138.435,4.512 138.2,9.762 138.764,9.787 138.954,4.508 			"/>
			<polygon points="141.379,4.426 141.01,10.162 141.593,10.111 141.866,4.358 			"/>
			<polygon points="143.27,4.52 143.048,10.069 143.684,10.124 143.855,4.542 			"/>
			<polygon points="145.392,4.487 144.632,10.164 145.19,10.26 145.908,4.546 			"/>
			<polygon points="147.311,4.512 147.076,9.762 147.64,9.787 147.83,4.508 			"/>
			<polygon points="150.256,4.419 149.888,9.556 150.471,9.511 150.743,4.358 			"/>
			<polygon points="152.148,4.52 151.926,10.069 152.562,10.124 152.733,4.542 			"/>
			<polygon points="154.269,4.487 153.51,10.164 154.068,10.26 154.786,4.546 			"/>
			<polygon points="156.188,4.53 155.953,10.391 156.518,10.419 156.708,4.526 			"/>
			<polygon points="158.073,4.426 157.704,10.162 158.287,10.111 158.56,4.358 			"/>
			<polygon points="159.964,4.52 159.742,10.069 160.378,10.124 160.549,4.542 			"/>
			<polygon points="162.086,4.487 161.326,10.164 161.884,10.26 162.602,4.546 			"/>
			<polygon points="164.005,4.512 163.583,10.756 164.147,10.781 164.524,4.508 			"/>
		</g>
		<g>
			<polygon fill="#FFFFFF" points="63.088,10.394 62.755,5.041 71.567,3.956 79.567,4.358 93.257,4.358 98.513,4.358 104.578,4.648 
				109.442,4.648 114.13,5.041 114.13,10.26 102.773,10.769 98.255,9.519 83.88,9.79 75.163,9.79 66.978,10.394 			"/>
			<polygon points="62.755,10.019 71.63,9.269 80.13,9.644 84.38,9.644 89.505,9.644 93.63,9.644 97.13,9.269 103.505,10.019 
				109.88,9.644 114.13,10.065 114.13,11.565 109.255,11.144 104.38,11.269 101.505,11.269 97.755,10.394 95.005,10.394 
				92.255,10.394 85.755,10.394 80.755,10.394 75.38,10.394 71.13,10.394 62.755,11.519 			"/>
			<polygon points="62.755,4.269 71.63,3.519 80.13,3.894 84.38,3.894 89.505,3.894 93.63,3.894 97.13,3.519 103.505,4.269 
				109.88,3.894 114.13,4.315 114.13,5.769 109.255,5.394 104.38,5.519 101.505,5.519 97.755,4.644 95.005,4.644 92.255,4.644 
				85.755,4.644 80.755,4.644 75.38,4.644 71.13,4.644 62.755,5.769 			"/>
			<polygon points="62.755,5.769 62.755,10.019 63.421,10.019 63.173,5.684 			"/>
			<polygon points="64.818,5.433 64.458,10.007 65.04,9.966 65.305,5.379 			"/>
			<polygon points="66.397,5.106 66.923,9.79 67.559,9.745 66.978,5.041 			"/>
			<polygon points="68.559,4.671 68.586,9.638 69.151,9.641 69.077,4.648 			"/>
			<polygon points="70.175,4.594 70.725,9.531 71.287,9.474 70.688,4.516 			"/>
			<polygon points="72.686,4.419 72.317,9.556 72.9,9.511 73.173,4.358 			"/>
			<polygon points="74.578,4.503 74.356,9.474 74.991,9.522 75.163,4.522 			"/>
			<polygon points="76.699,4.474 75.939,9.558 76.498,9.644 77.216,4.527 			"/>
			<polygon points="78.618,4.512 78.383,9.762 78.947,9.787 79.137,4.508 			"/>
			<polygon points="81.128,4.426 80.759,10.162 81.342,10.111 81.615,4.358 			"/>
			<polygon points="83.019,4.52 82.797,10.069 83.433,10.124 83.604,4.542 			"/>
			<polygon points="85.141,4.487 84.381,10.164 84.939,10.26 85.657,4.546 			"/>
			<polygon points="87.06,4.512 86.825,9.762 87.389,9.787 87.579,4.508 			"/>
			<polygon points="90.004,4.426 89.635,10.162 90.218,10.111 90.491,4.358 			"/>
			<polygon points="91.895,4.52 91.673,10.069 92.309,10.124 92.48,4.542 			"/>
			<polygon points="94.017,4.487 93.257,10.164 93.815,10.26 94.533,4.546 			"/>
			<polygon points="95.936,4.512 95.701,9.762 96.265,9.787 96.455,4.508 			"/>
			<polygon points="98.881,4.419 98.513,9.556 99.095,9.511 99.368,4.358 			"/>
			<polygon points="100.773,4.52 100.551,10.069 101.187,10.124 101.358,4.542 			"/>
			<polygon points="102.894,4.487 102.135,10.164 102.693,10.26 103.411,4.546 			"/>
			<polygon points="104.813,4.53 104.578,10.391 105.143,10.419 105.333,4.526 			"/>
			<polygon points="106.698,4.426 106.329,10.162 106.912,10.111 107.185,4.358 			"/>
			<polygon points="108.589,4.52 108.367,10.069 109.003,10.124 109.174,4.542 			"/>
			<polygon points="110.711,4.487 109.951,10.164 110.509,10.26 111.227,4.546 			"/>
			<polygon points="112.63,4.512 112.207,10.756 112.772,10.781 113.149,4.508 			"/>
		</g>
		<g>
			<polygon fill="#FFFFFF" points="11.713,10.394 11.38,5.041 20.192,3.956 28.192,4.358 41.882,4.358 47.138,4.358 53.203,4.648 
				58.067,4.648 62.755,5.041 62.755,10.26 51.398,10.769 46.88,9.519 32.505,9.79 23.788,9.79 15.603,10.394 			"/>
			<polygon points="11.38,10.019 20.255,9.269 28.755,9.644 33.005,9.644 38.13,9.644 42.255,9.644 45.755,9.269 52.13,10.019 
				58.505,9.644 62.755,10.065 62.755,11.565 57.88,11.144 53.005,11.269 50.13,11.269 46.38,10.394 43.63,10.394 40.88,10.394 
				34.38,10.394 29.38,10.394 24.005,10.394 19.755,10.394 11.38,11.519 			"/>
			<polygon points="11.38,4.269 20.255,3.519 28.755,3.894 33.005,3.894 38.13,3.894 42.255,3.894 45.755,3.519 52.13,4.269 
				58.505,3.894 62.755,4.315 62.755,5.769 57.88,5.394 53.005,5.519 50.13,5.519 46.38,4.644 43.63,4.644 40.88,4.644 34.38,4.644 
				29.38,4.644 24.005,4.644 19.755,4.644 11.38,5.769 			"/>
			<polygon points="11.38,5.769 11.38,10.019 12.046,10.019 11.798,5.684 			"/>
			<polygon points="13.443,5.433 13.083,10.007 13.665,9.966 13.93,5.379 			"/>
			<polygon points="15.022,5.106 15.548,9.79 16.184,9.745 15.603,5.041 			"/>
			<polygon points="17.184,4.671 17.211,9.638 17.776,9.641 17.702,4.648 			"/>
			<polygon points="18.8,4.594 19.35,9.531 19.912,9.474 19.313,4.516 			"/>
			<polygon points="21.311,4.419 20.942,9.556 21.525,9.511 21.798,4.358 			"/>
			<polygon points="23.203,4.503 22.981,9.474 23.616,9.522 23.788,4.522 			"/>
			<polygon points="25.324,4.474 24.564,9.558 25.123,9.644 25.841,4.527 			"/>
			<polygon points="27.243,4.512 27.008,9.762 27.572,9.787 27.762,4.508 			"/>
			<polygon points="29.753,4.426 29.384,10.162 29.967,10.111 30.24,4.358 			"/>
			<polygon points="31.644,4.52 31.422,10.069 32.058,10.124 32.229,4.542 			"/>
			<polygon points="33.766,4.487 33.006,10.164 33.564,10.26 34.282,4.546 			"/>
			<polygon points="35.685,4.512 35.45,9.762 36.014,9.787 36.204,4.508 			"/>
			<polygon points="38.629,4.426 38.26,10.162 38.843,10.111 39.116,4.358 			"/>
			<polygon points="40.52,4.52 40.298,10.069 40.934,10.124 41.105,4.542 			"/>
			<polygon points="42.642,4.487 41.882,10.164 42.44,10.26 43.158,4.546 			"/>
			<polygon points="44.561,4.512 44.326,9.762 44.89,9.787 45.08,4.508 			"/>
			<polygon points="47.506,4.419 47.138,9.556 47.72,9.511 47.993,4.358 			"/>
			<polygon points="49.398,4.52 49.176,10.069 49.812,10.124 49.983,4.542 			"/>
			<polygon points="51.519,4.487 50.76,10.164 51.318,10.26 52.036,4.546 			"/>
			<polygon points="53.438,4.53 53.203,10.391 53.768,10.419 53.958,4.526 			"/>
			<polygon points="55.323,4.426 54.954,10.162 55.537,10.111 55.81,4.358 			"/>
			<polygon points="57.214,4.52 56.992,10.069 57.628,10.124 57.799,4.542 			"/>
			<polygon points="59.336,4.487 58.576,10.164 59.134,10.26 59.852,4.546 			"/>
			<polygon points="61.255,4.512 60.832,10.756 61.397,10.781 61.774,4.508 			"/>
		</g>
		<g>
			<polygon fill="#FFFFFF" points="113.899,389.46 113.565,384.107 122.378,383.022 130.378,383.424 144.068,383.424 
				149.323,383.424 155.389,383.714 160.253,383.714 164.94,384.107 164.94,389.326 153.583,389.835 149.065,388.585 
				134.69,388.856 125.973,388.856 117.788,389.46 			"/>
			<polygon points="113.565,389.085 122.44,388.335 130.94,388.71 135.19,388.71 140.315,388.71 144.44,388.71 147.94,388.335 
				154.315,389.085 160.69,388.71 164.94,389.131 164.94,390.631 160.065,390.21 155.19,390.335 152.315,390.335 148.565,389.46 
				145.815,389.46 143.065,389.46 136.565,389.46 131.565,389.46 126.19,389.46 121.94,389.46 113.565,390.585 			"/>
			<polygon points="113.565,383.335 122.44,382.585 130.94,382.96 135.19,382.96 140.315,382.96 144.44,382.96 147.94,382.585 
				154.315,383.335 160.69,382.96 164.94,383.381 164.94,384.835 160.065,384.46 155.19,384.585 152.315,384.585 148.565,383.71 
				145.815,383.71 143.065,383.71 136.565,383.71 131.565,383.71 126.19,383.71 121.94,383.71 113.565,384.835 			"/>
			<polygon points="113.565,384.835 113.565,389.085 114.232,389.085 113.984,384.75 			"/>
			<polygon points="115.629,384.499 115.268,389.073 115.851,389.032 116.115,384.445 			"/>
			<polygon points="117.207,384.172 117.734,388.856 118.37,388.811 117.788,384.107 			"/>
			<polygon points="119.369,383.737 119.397,388.705 119.962,388.707 119.888,383.714 			"/>
			<polygon points="120.985,383.66 121.536,388.597 122.098,388.54 121.499,383.582 			"/>
			<polygon points="123.497,383.485 123.128,388.622 123.711,388.577 123.984,383.424 			"/>
			<polygon points="125.388,383.569 125.166,388.54 125.802,388.589 125.973,383.589 			"/>
			<polygon points="127.51,383.54 126.75,388.625 127.308,388.71 128.026,383.593 			"/>
			<polygon points="129.429,383.578 129.194,388.828 129.758,388.853 129.948,383.575 			"/>
			<polygon points="131.939,383.492 131.57,389.228 132.153,389.177 132.425,383.424 			"/>
			<polygon points="133.83,383.586 133.608,389.136 134.244,389.19 134.415,383.608 			"/>
			<polygon points="135.951,383.553 135.192,389.23 135.75,389.326 136.468,383.612 			"/>
			<polygon points="137.87,383.578 137.635,388.828 138.2,388.853 138.39,383.575 			"/>
			<polygon points="140.815,383.492 140.446,389.228 141.029,389.177 141.301,383.424 			"/>
			<polygon points="142.706,383.586 142.484,389.136 143.12,389.19 143.291,383.608 			"/>
			<polygon points="144.827,383.553 144.068,389.23 144.626,389.326 145.344,383.612 			"/>
			<polygon points="146.746,383.578 146.511,388.828 147.076,388.853 147.266,383.575 			"/>
			<polygon points="149.692,383.485 149.323,388.622 149.906,388.577 150.179,383.424 			"/>
			<polygon points="151.584,383.586 151.362,389.136 151.997,389.19 152.168,383.608 			"/>
			<polygon points="153.705,383.553 152.945,389.23 153.504,389.326 154.221,383.612 			"/>
			<polygon points="155.624,383.596 155.389,389.457 155.953,389.485 156.143,383.592 			"/>
			<polygon points="157.509,383.492 157.14,389.228 157.723,389.177 157.995,383.424 			"/>
			<polygon points="159.4,383.586 159.178,389.136 159.814,389.19 159.985,383.608 			"/>
			<polygon points="161.521,383.553 160.762,389.23 161.32,389.326 162.038,383.612 			"/>
			<polygon points="163.44,383.578 163.018,389.822 163.583,389.848 163.96,383.575 			"/>
		</g>
		<g>
			<polygon fill="#FFFFFF" points="62.524,389.46 62.19,384.107 71.003,383.022 79.003,383.424 92.693,383.424 97.948,383.424 
				104.014,383.714 108.878,383.714 113.565,384.107 113.565,389.326 102.208,389.835 97.69,388.585 83.315,388.856 74.598,388.856 
				66.413,389.46 			"/>
			<polygon points="62.19,389.085 71.065,388.335 79.565,388.71 83.815,388.71 88.94,388.71 93.065,388.71 96.565,388.335 
				102.94,389.085 109.315,388.71 113.565,389.131 113.565,390.631 108.69,390.21 103.815,390.335 100.94,390.335 97.19,389.46 
				94.44,389.46 91.69,389.46 85.19,389.46 80.19,389.46 74.815,389.46 70.565,389.46 62.19,390.585 			"/>
			<polygon points="62.19,383.335 71.065,382.585 79.565,382.96 83.815,382.96 88.94,382.96 93.065,382.96 96.565,382.585 
				102.94,383.335 109.315,382.96 113.565,383.381 113.565,384.835 108.69,384.46 103.815,384.585 100.94,384.585 97.19,383.71 
				94.44,383.71 91.69,383.71 85.19,383.71 80.19,383.71 74.815,383.71 70.565,383.71 62.19,384.835 			"/>
			<polygon points="62.19,384.835 62.19,389.085 62.857,389.085 62.609,384.75 			"/>
			<polygon points="64.254,384.499 63.893,389.073 64.476,389.032 64.74,384.445 			"/>
			<polygon points="65.832,384.172 66.359,388.856 66.995,388.811 66.413,384.107 			"/>
			<polygon points="67.994,383.737 68.022,388.705 68.587,388.707 68.513,383.714 			"/>
			<polygon points="69.61,383.66 70.161,388.597 70.723,388.54 70.124,383.582 			"/>
			<polygon points="72.122,383.485 71.753,388.622 72.336,388.577 72.609,383.424 			"/>
			<polygon points="74.013,383.569 73.791,388.54 74.427,388.589 74.598,383.589 			"/>
			<polygon points="76.135,383.54 75.375,388.625 75.933,388.71 76.651,383.593 			"/>
			<polygon points="78.054,383.578 77.819,388.828 78.383,388.853 78.573,383.575 			"/>
			<polygon points="80.564,383.492 80.195,389.228 80.778,389.177 81.05,383.424 			"/>
			<polygon points="82.455,383.586 82.233,389.136 82.869,389.19 83.04,383.608 			"/>
			<polygon points="84.576,383.553 83.817,389.23 84.375,389.326 85.093,383.612 			"/>
			<polygon points="86.495,383.578 86.26,388.828 86.825,388.853 87.015,383.575 			"/>
			<polygon points="89.44,383.492 89.071,389.228 89.654,389.177 89.926,383.424 			"/>
			<polygon points="91.331,383.586 91.109,389.136 91.745,389.19 91.916,383.608 			"/>
			<polygon points="93.452,383.553 92.693,389.23 93.251,389.326 93.969,383.612 			"/>
			<polygon points="95.371,383.578 95.136,388.828 95.701,388.853 95.891,383.575 			"/>
			<polygon points="98.317,383.485 97.948,388.622 98.531,388.577 98.804,383.424 			"/>
			<polygon points="100.209,383.586 99.987,389.136 100.622,389.19 100.793,383.608 			"/>
			<polygon points="102.33,383.553 101.57,389.23 102.129,389.326 102.846,383.612 			"/>
			<polygon points="104.249,383.596 104.014,389.457 104.578,389.485 104.768,383.592 			"/>
			<polygon points="106.134,383.492 105.765,389.228 106.348,389.177 106.62,383.424 			"/>
			<polygon points="108.025,383.586 107.803,389.136 108.439,389.19 108.61,383.608 			"/>
			<polygon points="110.146,383.553 109.387,389.23 109.945,389.326 110.663,383.612 			"/>
			<polygon points="112.065,383.578 111.643,389.822 112.208,389.848 112.585,383.575 			"/>
		</g>
		<g>
			<polygon fill="#FFFFFF" points="11.149,389.46 10.815,384.107 19.628,383.022 27.628,383.424 41.318,383.424 46.573,383.424 
				52.639,383.714 57.503,383.714 62.19,384.107 62.19,389.326 50.833,389.835 46.315,388.585 31.94,388.856 23.223,388.856 
				15.038,389.46 			"/>
			<polygon points="10.815,389.085 19.69,388.335 28.19,388.71 32.44,388.71 37.565,388.71 41.69,388.71 45.19,388.335 
				51.565,389.085 57.94,388.71 62.19,389.131 62.19,390.631 57.315,390.21 52.44,390.335 49.565,390.335 45.815,389.46 
				43.065,389.46 40.315,389.46 33.815,389.46 28.815,389.46 23.44,389.46 19.19,389.46 10.815,390.585 			"/>
			<polygon points="10.815,383.335 19.69,382.585 28.19,382.96 32.44,382.96 37.565,382.96 41.69,382.96 45.19,382.585 
				51.565,383.335 57.94,382.96 62.19,383.381 62.19,384.835 57.315,384.46 52.44,384.585 49.565,384.585 45.815,383.71 
				43.065,383.71 40.315,383.71 33.815,383.71 28.815,383.71 23.44,383.71 19.19,383.71 10.815,384.835 			"/>
			<polygon points="10.815,384.835 10.815,389.085 11.482,389.085 11.234,384.75 			"/>
			<polygon points="12.879,384.499 12.518,389.073 13.101,389.032 13.365,384.445 			"/>
			<polygon points="14.457,384.172 14.984,388.856 15.62,388.811 15.038,384.107 			"/>
			<polygon points="16.619,383.737 16.647,388.705 17.212,388.707 17.138,383.714 			"/>
			<polygon points="18.235,383.66 18.786,388.597 19.348,388.54 18.749,383.582 			"/>
			<polygon points="20.747,383.485 20.378,388.622 20.961,388.577 21.234,383.424 			"/>
			<polygon points="22.638,383.569 22.416,388.54 23.052,388.589 23.223,383.589 			"/>
			<polygon points="24.76,383.54 24,388.625 24.558,388.71 25.276,383.593 			"/>
			<polygon points="26.679,383.578 26.444,388.828 27.008,388.853 27.198,383.575 			"/>
			<polygon points="29.189,383.492 28.82,389.228 29.403,389.177 29.675,383.424 			"/>
			<polygon points="31.08,383.586 30.858,389.136 31.494,389.19 31.665,383.608 			"/>
			<polygon points="33.201,383.553 32.442,389.23 33,389.326 33.718,383.612 			"/>
			<polygon points="35.12,383.578 34.885,388.828 35.45,388.853 35.64,383.575 			"/>
			<polygon points="38.065,383.492 37.696,389.228 38.279,389.177 38.551,383.424 			"/>
			<polygon points="39.956,383.586 39.734,389.136 40.37,389.19 40.541,383.608 			"/>
			<polygon points="42.077,383.553 41.318,389.23 41.876,389.326 42.594,383.612 			"/>
			<polygon points="43.996,383.578 43.761,388.828 44.326,388.853 44.516,383.575 			"/>
			<polygon points="46.942,383.485 46.573,388.622 47.156,388.577 47.429,383.424 			"/>
			<polygon points="48.834,383.586 48.612,389.136 49.247,389.19 49.418,383.608 			"/>
			<polygon points="50.955,383.553 50.195,389.23 50.754,389.326 51.471,383.612 			"/>
			<polygon points="52.874,383.596 52.639,389.457 53.203,389.485 53.393,383.592 			"/>
			<polygon points="54.759,383.492 54.39,389.228 54.973,389.177 55.245,383.424 			"/>
			<polygon points="56.65,383.586 56.428,389.136 57.064,389.19 57.235,383.608 			"/>
			<polygon points="58.771,383.553 58.012,389.23 58.57,389.326 59.288,383.612 			"/>
			<polygon points="60.69,383.578 60.268,389.822 60.833,389.848 61.21,383.575 			"/>
		</g>
		<g>
			<polygon fill="#FFFFFF" points="10.127,62.607 4.774,62.94 3.69,54.128 4.092,46.128 4.092,32.437 4.092,27.182 4.382,21.116 
				4.382,16.253 4.774,11.565 9.993,11.565 10.502,22.922 9.252,27.44 9.523,41.815 9.523,50.532 10.127,58.717 			"/>
			<polygon points="9.752,62.94 9.002,54.065 9.377,45.565 9.377,41.315 9.377,36.19 9.377,32.065 9.002,28.565 9.752,22.19 
				9.377,15.815 9.799,11.565 11.299,11.565 10.877,16.44 11.002,21.315 11.002,24.19 10.127,27.94 10.127,30.69 10.127,33.44 
				10.127,39.94 10.127,44.94 10.127,50.315 10.127,54.565 11.252,62.94 			"/>
			<polygon points="4.002,62.94 3.252,54.065 3.627,45.565 3.627,41.315 3.627,36.19 3.627,32.065 3.252,28.565 4.002,22.19 
				3.627,15.815 4.049,11.565 5.502,11.565 5.127,16.44 5.252,21.315 5.252,24.19 4.377,27.94 4.377,30.69 4.377,33.44 4.377,39.94 
				4.377,44.94 4.377,50.315 4.377,54.565 5.502,62.94 			"/>
			<polygon points="5.502,62.94 9.752,62.94 9.752,62.273 5.418,62.521 			"/>
			<polygon points="5.167,60.877 9.74,61.237 9.699,60.654 5.112,60.39 			"/>
			<polygon points="4.839,59.298 9.523,58.771 9.478,58.136 4.774,58.717 			"/>
			<polygon points="4.405,57.136 9.372,57.108 9.374,56.543 4.382,56.617 			"/>
			<polygon points="4.327,55.52 9.264,54.969 9.207,54.407 4.25,55.007 			"/>
			<polygon points="4.152,53.008 9.29,53.377 9.245,52.794 4.092,52.522 			"/>
			<polygon points="4.237,51.117 9.207,51.339 9.256,50.703 4.256,50.532 			"/>
			<polygon points="4.207,48.996 9.292,49.755 9.378,49.197 4.26,48.479 			"/>
			<polygon points="4.245,47.077 9.495,47.312 9.52,46.747 4.242,46.557 			"/>
			<polygon points="4.159,44.567 9.895,44.935 9.845,44.352 4.092,44.08 			"/>
			<polygon points="4.254,42.675 9.803,42.897 9.857,42.261 4.275,42.09 			"/>
			<polygon points="4.221,40.554 9.898,41.313 9.993,40.755 4.28,40.037 			"/>
			<polygon points="4.245,38.635 9.495,38.87 9.52,38.305 4.242,38.115 			"/>
			<polygon points="4.159,35.691 9.895,36.059 9.845,35.477 4.092,35.204 			"/>
			<polygon points="4.254,33.799 9.803,34.021 9.857,33.385 4.275,33.214 			"/>
			<polygon points="4.221,31.678 9.898,32.437 9.993,31.879 4.28,31.161 			"/>
			<polygon points="4.245,29.759 9.495,29.994 9.52,29.429 4.242,29.239 			"/>
			<polygon points="4.152,26.813 9.29,27.182 9.245,26.599 4.092,26.327 			"/>
			<polygon points="4.254,24.922 9.803,25.144 9.857,24.508 4.275,24.337 			"/>
			<polygon points="4.221,22.8 9.898,23.56 9.993,23.002 4.28,22.284 			"/>
			<polygon points="4.263,20.882 10.124,21.116 10.153,20.552 4.259,20.362 			"/>
			<polygon points="4.159,18.997 9.895,19.365 9.845,18.782 4.092,18.51 			"/>
			<polygon points="4.254,17.105 9.803,17.327 9.857,16.691 4.275,16.52 			"/>
			<polygon points="4.221,14.984 9.898,15.743 9.993,15.185 4.28,14.467 			"/>
			<polygon points="4.245,13.065 10.49,13.487 10.515,12.923 4.242,12.545 			"/>
		</g>
		<g>
			<polygon fill="#FFFFFF" points="10.127,113.982 4.774,114.315 3.69,105.503 4.092,97.503 4.092,83.812 4.092,78.557 
				4.382,72.491 4.382,67.628 4.774,62.94 9.993,62.94 10.502,74.297 9.252,78.815 9.523,93.19 9.523,101.907 10.127,110.092 			"/>
			<polygon points="9.752,114.315 9.002,105.44 9.377,96.94 9.377,92.69 9.377,87.565 9.377,83.44 9.002,79.94 9.752,73.565 
				9.377,67.19 9.799,62.94 11.299,62.94 10.877,67.815 11.002,72.69 11.002,75.565 10.127,79.315 10.127,82.065 10.127,84.815 
				10.127,91.315 10.127,96.315 10.127,101.69 10.127,105.94 11.252,114.315 			"/>
			<polygon points="4.002,114.315 3.252,105.44 3.627,96.94 3.627,92.69 3.627,87.565 3.627,83.44 3.252,79.94 4.002,73.565 
				3.627,67.19 4.049,62.94 5.502,62.94 5.127,67.815 5.252,72.69 5.252,75.565 4.377,79.315 4.377,82.065 4.377,84.815 
				4.377,91.315 4.377,96.315 4.377,101.69 4.377,105.94 5.502,114.315 			"/>
			<polygon points="5.502,114.315 9.752,114.315 9.752,113.648 5.418,113.896 			"/>
			<polygon points="5.167,112.252 9.74,112.612 9.699,112.029 5.112,111.765 			"/>
			<polygon points="4.839,110.673 9.523,110.146 9.478,109.511 4.774,110.092 			"/>
			<polygon points="4.405,108.511 9.372,108.483 9.374,107.918 4.382,107.992 			"/>
			<polygon points="4.327,106.895 9.264,106.344 9.207,105.782 4.25,106.382 			"/>
			<polygon points="4.152,104.383 9.29,104.752 9.245,104.169 4.092,103.897 			"/>
			<polygon points="4.237,102.492 9.207,102.714 9.256,102.078 4.256,101.907 			"/>
			<polygon points="4.207,100.371 9.292,101.13 9.378,100.572 4.26,99.854 			"/>
			<polygon points="4.245,98.452 9.495,98.687 9.52,98.122 4.242,97.932 			"/>
			<polygon points="4.159,95.942 9.895,96.31 9.845,95.727 4.092,95.455 			"/>
			<polygon points="4.254,94.05 9.803,94.272 9.857,93.636 4.275,93.465 			"/>
			<polygon points="4.221,91.929 9.898,92.688 9.993,92.13 4.28,91.412 			"/>
			<polygon points="4.245,90.01 9.495,90.245 9.52,89.68 4.242,89.49 			"/>
			<polygon points="4.159,87.066 9.895,87.434 9.845,86.852 4.092,86.579 			"/>
			<polygon points="4.254,85.174 9.803,85.396 9.857,84.76 4.275,84.589 			"/>
			<polygon points="4.221,83.053 9.898,83.812 9.993,83.254 4.28,82.536 			"/>
			<polygon points="4.245,81.134 9.495,81.369 9.52,80.804 4.242,80.614 			"/>
			<polygon points="4.152,78.188 9.29,78.557 9.245,77.974 4.092,77.702 			"/>
			<polygon points="4.254,76.297 9.803,76.519 9.857,75.883 4.275,75.712 			"/>
			<polygon points="4.221,74.175 9.898,74.935 9.993,74.377 4.28,73.659 			"/>
			<polygon points="4.263,72.257 10.124,72.491 10.153,71.927 4.259,71.737 			"/>
			<polygon points="4.159,70.372 9.895,70.74 9.845,70.157 4.092,69.885 			"/>
			<polygon points="4.254,68.48 9.803,68.702 9.857,68.066 4.275,67.895 			"/>
			<polygon points="4.221,66.359 9.898,67.118 9.993,66.56 4.28,65.842 			"/>
			<polygon points="4.245,64.44 10.49,64.862 10.515,64.298 4.242,63.92 			"/>
		</g>
		<g>
			<polygon fill="#FFFFFF" points="10.127,165.357 4.774,165.69 3.69,156.878 4.092,148.878 4.092,135.187 4.092,129.932 
				4.382,123.866 4.382,119.003 4.774,114.315 9.993,114.315 10.502,125.672 9.252,130.19 9.523,144.565 9.523,153.282 
				10.127,161.467 			"/>
			<polygon points="9.752,165.69 9.002,156.815 9.377,148.315 9.377,144.065 9.377,138.94 9.377,134.815 9.002,131.315 
				9.752,124.94 9.377,118.565 9.799,114.315 11.299,114.315 10.877,119.19 11.002,124.065 11.002,126.94 10.127,130.69 
				10.127,133.44 10.127,136.19 10.127,142.69 10.127,147.69 10.127,153.065 10.127,157.315 11.252,165.69 			"/>
			<polygon points="4.002,165.69 3.252,156.815 3.627,148.315 3.627,144.065 3.627,138.94 3.627,134.815 3.252,131.315 
				4.002,124.94 3.627,118.565 4.049,114.315 5.502,114.315 5.127,119.19 5.252,124.065 5.252,126.94 4.377,130.69 4.377,133.44 
				4.377,136.19 4.377,142.69 4.377,147.69 4.377,153.065 4.377,157.315 5.502,165.69 			"/>
			<polygon points="5.502,165.69 9.752,165.69 9.752,165.023 5.418,165.271 			"/>
			<polygon points="5.167,163.627 9.74,163.987 9.699,163.404 5.112,163.14 			"/>
			<polygon points="4.839,162.048 9.523,161.521 9.478,160.886 4.774,161.467 			"/>
			<polygon points="4.405,159.886 9.372,159.858 9.374,159.293 4.382,159.367 			"/>
			<polygon points="4.327,158.27 9.264,157.719 9.207,157.157 4.25,157.757 			"/>
			<polygon points="4.152,155.758 9.29,156.127 9.245,155.544 4.092,155.272 			"/>
			<polygon points="4.237,153.867 9.207,154.089 9.256,153.453 4.256,153.282 			"/>
			<polygon points="4.207,151.746 9.292,152.505 9.378,151.947 4.26,151.229 			"/>
			<polygon points="4.245,149.827 9.495,150.062 9.52,149.497 4.242,149.307 			"/>
			<polygon points="4.159,147.317 9.895,147.685 9.845,147.102 4.092,146.83 			"/>
			<polygon points="4.254,145.425 9.803,145.647 9.857,145.011 4.275,144.84 			"/>
			<polygon points="4.221,143.304 9.898,144.063 9.993,143.505 4.28,142.787 			"/>
			<polygon points="4.245,141.385 9.495,141.62 9.52,141.055 4.242,140.865 			"/>
			<polygon points="4.159,138.441 9.895,138.809 9.845,138.227 4.092,137.954 			"/>
			<polygon points="4.254,136.549 9.803,136.771 9.857,136.135 4.275,135.964 			"/>
			<polygon points="4.221,134.428 9.898,135.187 9.993,134.629 4.28,133.911 			"/>
			<polygon points="4.245,132.509 9.495,132.744 9.52,132.179 4.242,131.989 			"/>
			<polygon points="4.152,129.563 9.29,129.932 9.245,129.349 4.092,129.077 			"/>
			<polygon points="4.254,127.672 9.803,127.894 9.857,127.258 4.275,127.087 			"/>
			<polygon points="4.221,125.55 9.898,126.31 9.993,125.752 4.28,125.034 			"/>
			<polygon points="4.263,123.632 10.124,123.866 10.153,123.302 4.259,123.112 			"/>
			<polygon points="4.159,121.747 9.895,122.115 9.845,121.532 4.092,121.26 			"/>
			<polygon points="4.254,119.855 9.803,120.077 9.857,119.441 4.275,119.27 			"/>
			<polygon points="4.221,117.734 9.898,118.493 9.993,117.935 4.28,117.217 			"/>
			<polygon points="4.245,115.815 10.49,116.237 10.515,115.673 4.242,115.295 			"/>
		</g>
		<g>
			<polygon fill="#FFFFFF" points="10.127,216.732 4.774,217.065 3.69,208.253 4.092,200.253 4.092,186.562 4.092,181.307 
				4.382,175.241 4.382,170.378 4.774,165.69 9.993,165.69 10.502,177.047 9.252,181.565 9.523,195.94 9.523,204.657 
				10.127,212.842 			"/>
			<polygon points="9.752,217.065 9.002,208.19 9.377,199.69 9.377,195.44 9.377,190.315 9.377,186.19 9.002,182.69 9.752,176.315 
				9.377,169.94 9.799,165.69 11.299,165.69 10.877,170.565 11.002,175.44 11.002,178.315 10.127,182.065 10.127,184.815 
				10.127,187.565 10.127,194.065 10.127,199.065 10.127,204.44 10.127,208.69 11.252,217.065 			"/>
			<polygon points="4.002,217.065 3.252,208.19 3.627,199.69 3.627,195.44 3.627,190.315 3.627,186.19 3.252,182.69 4.002,176.315 
				3.627,169.94 4.049,165.69 5.502,165.69 5.127,170.565 5.252,175.44 5.252,178.315 4.377,182.065 4.377,184.815 4.377,187.565 
				4.377,194.065 4.377,199.065 4.377,204.44 4.377,208.69 5.502,217.065 			"/>
			<polygon points="5.502,217.065 9.752,217.065 9.752,216.398 5.418,216.646 			"/>
			<polygon points="5.167,215.002 9.74,215.362 9.699,214.779 5.112,214.515 			"/>
			<polygon points="4.839,213.423 9.523,212.896 9.478,212.261 4.774,212.842 			"/>
			<polygon points="4.405,211.261 9.372,211.233 9.374,210.668 4.382,210.742 			"/>
			<polygon points="4.327,209.645 9.264,209.094 9.207,208.532 4.25,209.132 			"/>
			<polygon points="4.152,207.133 9.29,207.502 9.245,206.919 4.092,206.647 			"/>
			<polygon points="4.237,205.242 9.207,205.464 9.256,204.828 4.256,204.657 			"/>
			<polygon points="4.207,203.121 9.292,203.88 9.378,203.322 4.26,202.604 			"/>
			<polygon points="4.245,201.202 9.495,201.437 9.52,200.872 4.242,200.682 			"/>
			<polygon points="4.159,198.692 9.895,199.06 9.845,198.478 4.092,198.205 			"/>
			<polygon points="4.254,196.8 9.803,197.022 9.857,196.386 4.275,196.215 			"/>
			<polygon points="4.221,194.679 9.898,195.438 9.993,194.88 4.28,194.162 			"/>
			<polygon points="4.245,192.76 9.495,192.995 9.52,192.43 4.242,192.24 			"/>
			<polygon points="4.159,189.816 9.895,190.184 9.845,189.602 4.092,189.329 			"/>
			<polygon points="4.254,187.924 9.803,188.146 9.857,187.51 4.275,187.339 			"/>
			<polygon points="4.221,185.803 9.898,186.562 9.993,186.004 4.28,185.286 			"/>
			<polygon points="4.245,183.884 9.495,184.119 9.52,183.554 4.242,183.364 			"/>
			<polygon points="4.152,180.938 9.29,181.307 9.245,180.724 4.092,180.452 			"/>
			<polygon points="4.254,179.047 9.803,179.269 9.857,178.633 4.275,178.462 			"/>
			<polygon points="4.221,176.925 9.898,177.685 9.993,177.127 4.28,176.409 			"/>
			<polygon points="4.263,175.007 10.124,175.241 10.153,174.677 4.259,174.487 			"/>
			<polygon points="4.159,173.122 9.895,173.49 9.845,172.907 4.092,172.635 			"/>
			<polygon points="4.254,171.23 9.803,171.452 9.857,170.816 4.275,170.645 			"/>
			<polygon points="4.221,169.109 9.898,169.868 9.993,169.31 4.28,168.592 			"/>
			<polygon points="4.245,167.19 10.49,167.612 10.515,167.048 4.242,166.67 			"/>
		</g>
		<g>
			<polygon fill="#FFFFFF" points="10.127,268.107 4.774,268.44 3.69,259.628 4.092,251.628 4.092,237.937 4.092,232.682 
				4.382,226.616 4.382,221.753 4.774,217.065 9.993,217.065 10.502,228.422 9.252,232.94 9.523,247.315 9.523,256.032 
				10.127,264.217 			"/>
			<polygon points="9.752,268.44 9.002,259.565 9.377,251.065 9.377,246.815 9.377,241.69 9.377,237.565 9.002,234.065 
				9.752,227.69 9.377,221.315 9.799,217.065 11.299,217.065 10.877,221.94 11.002,226.815 11.002,229.69 10.127,233.44 
				10.127,236.19 10.127,238.94 10.127,245.44 10.127,250.44 10.127,255.815 10.127,260.065 11.252,268.44 			"/>
			<polygon points="4.002,268.44 3.252,259.565 3.627,251.065 3.627,246.815 3.627,241.69 3.627,237.565 3.252,234.065 
				4.002,227.69 3.627,221.315 4.049,217.065 5.502,217.065 5.127,221.94 5.252,226.815 5.252,229.69 4.377,233.44 4.377,236.19 
				4.377,238.94 4.377,245.44 4.377,250.44 4.377,255.815 4.377,260.065 5.502,268.44 			"/>
			<polygon points="5.502,268.44 9.752,268.44 9.752,267.773 5.418,268.021 			"/>
			<polygon points="5.167,266.377 9.74,266.737 9.699,266.154 5.112,265.89 			"/>
			<polygon points="4.839,264.798 9.523,264.271 9.478,263.636 4.774,264.217 			"/>
			<polygon points="4.405,262.636 9.372,262.608 9.374,262.043 4.382,262.117 			"/>
			<polygon points="4.327,261.02 9.264,260.469 9.207,259.907 4.25,260.507 			"/>
			<polygon points="4.152,258.508 9.29,258.877 9.245,258.294 4.092,258.022 			"/>
			<polygon points="4.237,256.617 9.207,256.839 9.256,256.203 4.256,256.032 			"/>
			<polygon points="4.207,254.496 9.292,255.255 9.378,254.697 4.26,253.979 			"/>
			<polygon points="4.245,252.577 9.495,252.812 9.52,252.247 4.242,252.057 			"/>
			<polygon points="4.159,250.067 9.895,250.435 9.845,249.853 4.092,249.58 			"/>
			<polygon points="4.254,248.175 9.803,248.397 9.857,247.761 4.275,247.59 			"/>
			<polygon points="4.221,246.054 9.898,246.813 9.993,246.255 4.28,245.537 			"/>
			<polygon points="4.245,244.135 9.495,244.37 9.52,243.805 4.242,243.615 			"/>
			<polygon points="4.159,241.191 9.895,241.559 9.845,240.977 4.092,240.704 			"/>
			<polygon points="4.254,239.299 9.803,239.521 9.857,238.885 4.275,238.714 			"/>
			<polygon points="4.221,237.178 9.898,237.937 9.993,237.379 4.28,236.661 			"/>
			<polygon points="4.245,235.259 9.495,235.494 9.52,234.929 4.242,234.739 			"/>
			<polygon points="4.152,232.313 9.29,232.682 9.245,232.099 4.092,231.827 			"/>
			<polygon points="4.254,230.422 9.803,230.644 9.857,230.008 4.275,229.837 			"/>
			<polygon points="4.221,228.3 9.898,229.06 9.993,228.502 4.28,227.784 			"/>
			<polygon points="4.263,226.382 10.124,226.616 10.153,226.052 4.259,225.862 			"/>
			<polygon points="4.159,224.497 9.895,224.865 9.845,224.282 4.092,224.01 			"/>
			<polygon points="4.254,222.605 9.803,222.827 9.857,222.191 4.275,222.02 			"/>
			<polygon points="4.221,220.484 9.898,221.243 9.993,220.685 4.28,219.967 			"/>
			<polygon points="4.245,218.565 10.49,218.987 10.515,218.423 4.242,218.045 			"/>
		</g>
		<g>
			<polygon fill="#FFFFFF" points="10.127,319.482 4.774,319.815 3.69,311.003 4.092,303.003 4.092,289.312 4.092,284.057 
				4.382,277.991 4.382,273.128 4.774,268.44 9.993,268.44 10.502,279.797 9.252,284.315 9.523,298.69 9.523,307.407 
				10.127,315.592 			"/>
			<polygon points="9.752,319.815 9.002,310.94 9.377,302.44 9.377,298.19 9.377,293.065 9.377,288.94 9.002,285.44 9.752,279.065 
				9.377,272.69 9.799,268.44 11.299,268.44 10.877,273.315 11.002,278.19 11.002,281.065 10.127,284.815 10.127,287.565 
				10.127,290.315 10.127,296.815 10.127,301.815 10.127,307.19 10.127,311.44 11.252,319.815 			"/>
			<polygon points="4.002,319.815 3.252,310.94 3.627,302.44 3.627,298.19 3.627,293.065 3.627,288.94 3.252,285.44 4.002,279.065 
				3.627,272.69 4.049,268.44 5.502,268.44 5.127,273.315 5.252,278.19 5.252,281.065 4.377,284.815 4.377,287.565 4.377,290.315 
				4.377,296.815 4.377,301.815 4.377,307.19 4.377,311.44 5.502,319.815 			"/>
			<polygon points="5.502,319.815 9.752,319.815 9.752,319.148 5.418,319.396 			"/>
			<polygon points="5.167,317.752 9.74,318.112 9.699,317.529 5.112,317.265 			"/>
			<polygon points="4.839,316.173 9.523,315.646 9.478,315.011 4.774,315.592 			"/>
			<polygon points="4.405,314.011 9.372,313.983 9.374,313.418 4.382,313.492 			"/>
			<polygon points="4.327,312.395 9.264,311.844 9.207,311.282 4.25,311.882 			"/>
			<polygon points="4.152,309.883 9.29,310.252 9.245,309.669 4.092,309.397 			"/>
			<polygon points="4.237,307.992 9.207,308.214 9.256,307.578 4.256,307.407 			"/>
			<polygon points="4.207,305.871 9.292,306.63 9.378,306.072 4.26,305.354 			"/>
			<polygon points="4.245,303.952 9.495,304.187 9.52,303.622 4.242,303.432 			"/>
			<polygon points="4.159,301.442 9.895,301.81 9.845,301.228 4.092,300.955 			"/>
			<polygon points="4.254,299.55 9.803,299.772 9.857,299.136 4.275,298.965 			"/>
			<polygon points="4.221,297.429 9.898,298.188 9.993,297.63 4.28,296.912 			"/>
			<polygon points="4.245,295.51 9.495,295.745 9.52,295.18 4.242,294.99 			"/>
			<polygon points="4.159,292.566 9.895,292.934 9.845,292.352 4.092,292.079 			"/>
			<polygon points="4.254,290.674 9.803,290.896 9.857,290.26 4.275,290.089 			"/>
			<polygon points="4.221,288.553 9.898,289.312 9.993,288.754 4.28,288.036 			"/>
			<polygon points="4.245,286.634 9.495,286.869 9.52,286.304 4.242,286.114 			"/>
			<polygon points="4.152,283.688 9.29,284.057 9.245,283.474 4.092,283.202 			"/>
			<polygon points="4.254,281.797 9.803,282.019 9.857,281.383 4.275,281.212 			"/>
			<polygon points="4.221,279.675 9.898,280.435 9.993,279.877 4.28,279.159 			"/>
			<polygon points="4.263,277.757 10.124,277.991 10.153,277.427 4.259,277.237 			"/>
			<polygon points="4.159,275.872 9.895,276.24 9.845,275.658 4.092,275.385 			"/>
			<polygon points="4.254,273.98 9.803,274.202 9.857,273.566 4.275,273.395 			"/>
			<polygon points="4.221,271.859 9.898,272.618 9.993,272.06 4.28,271.342 			"/>
			<polygon points="4.245,269.94 10.49,270.362 10.515,269.798 4.242,269.42 			"/>
		</g>
		<g>
			<polygon fill="#FFFFFF" points="10.482,383.925 4.714,383.925 3.69,362.34 4.092,354.34 4.092,340.65 4.092,335.395 
				4.382,329.329 4.382,324.465 4.774,319.778 9.993,319.778 10.502,331.135 9.252,335.653 9.523,350.028 9.523,358.745 
				10.127,366.93 			"/>
			<polygon points="9.752,371.153 9.002,362.278 9.377,353.778 9.377,349.528 9.377,344.403 9.377,340.278 9.002,336.778 
				9.752,330.403 9.377,324.028 9.799,319.778 11.299,319.778 10.877,324.653 11.002,329.528 11.002,332.403 10.127,336.153 
				10.127,338.903 10.127,341.653 10.127,348.153 10.127,353.153 10.127,358.528 10.127,362.778 11.252,371.153 			"/>
			<polygon points="4.002,371.153 3.252,362.278 3.627,353.778 3.627,349.528 3.627,344.403 3.627,340.278 3.252,336.778 
				4.002,330.403 3.627,324.028 4.049,319.778 5.502,319.778 5.127,324.653 5.252,329.528 5.252,332.403 4.377,336.153 
				4.377,338.903 4.377,341.653 4.377,348.153 4.377,353.153 4.377,358.528 4.377,362.778 5.502,371.153 			"/>
			<polygon points="5.502,371.153 9.752,371.153 9.752,370.486 5.418,370.734 			"/>
			<polygon points="5.167,369.089 9.74,369.45 9.699,368.867 5.112,368.603 			"/>
			<polygon points="4.839,367.511 9.523,366.984 9.478,366.348 4.774,366.93 			"/>
			<polygon points="4.405,365.349 9.372,365.321 9.374,364.756 4.382,364.83 			"/>
			<polygon points="4.327,363.733 9.264,363.182 9.207,362.62 4.25,363.219 			"/>
			<polygon points="4.152,361.221 9.29,361.59 9.245,361.007 4.092,360.735 			"/>
			<polygon points="4.237,359.33 9.207,359.552 9.256,358.916 4.256,358.745 			"/>
			<polygon points="4.207,357.208 9.292,357.968 9.378,357.41 4.26,356.692 			"/>
			<polygon points="4.245,355.289 9.495,355.524 9.52,354.96 4.242,354.77 			"/>
			<polygon points="4.159,352.779 9.895,353.148 9.845,352.565 4.092,352.293 			"/>
			<polygon points="4.254,350.888 9.803,351.11 9.857,350.474 4.275,350.303 			"/>
			<polygon points="4.221,348.767 9.898,349.526 9.993,348.968 4.28,348.25 			"/>
			<polygon points="4.245,346.848 9.495,347.083 9.52,346.518 4.242,346.328 			"/>
			<polygon points="4.159,343.903 9.895,344.272 9.845,343.689 4.092,343.417 			"/>
			<polygon points="4.254,342.012 9.803,342.234 9.857,341.598 4.275,341.427 			"/>
			<polygon points="4.221,339.891 9.898,340.65 9.993,340.092 4.28,339.374 			"/>
			<polygon points="4.245,337.972 9.495,338.207 9.52,337.642 4.242,337.452 			"/>
			<polygon points="4.152,335.026 9.29,335.395 9.245,334.812 4.092,334.539 			"/>
			<polygon points="4.254,333.134 9.803,333.356 9.857,332.721 4.275,332.55 			"/>
			<polygon points="4.221,331.013 9.898,331.773 9.993,331.214 4.28,330.497 			"/>
			<polygon points="4.263,329.094 10.124,329.329 10.153,328.765 4.259,328.575 			"/>
			<polygon points="4.159,327.209 9.895,327.578 9.845,326.995 4.092,326.723 			"/>
			<polygon points="4.254,325.318 9.803,325.54 9.857,324.904 4.275,324.733 			"/>
			<polygon points="4.221,323.197 9.898,323.956 9.993,323.398 4.28,322.68 			"/>
			<polygon points="4.245,321.278 10.49,321.7 10.515,321.135 4.242,320.758 			"/>
		</g>
		<g>
			<polygon points="9.557,383.305 9.002,380.839 9.377,378.902 9.377,377.933 9.377,376.765 9.377,375.825 9.002,375.027 
				9.752,373.574 9.377,372.121 9.798,371.152 11.298,371.152 10.877,372.263 11.002,373.374 11.002,374.03 10.127,374.884 
				10.127,375.511 10.127,376.138 10.127,377.62 10.127,378.759 10.127,379.984 10.127,380.953 11.057,383.305 			"/>
			<polyline points="4.002,373.574 3.627,372.121 4.048,371.152 5.502,371.152 5.127,372.263 5.252,373.374 5.252,374.03 
				4.774,375.064 4.774,375.69 4.774,376.317 4.774,377.799 4.774,378.938 4.774,380.163 4.774,381.132 5.283,383.305 
				3.783,383.305 3.252,380.839 3.627,378.902 3.627,377.933 3.627,376.765 3.627,375.825 			"/>
			<polygon points="4.254,384.51 9.803,384.731 9.857,384.096 4.275,383.925 			"/>
			<polygon points="4.221,382.388 9.898,383.148 9.993,382.589 4.28,381.872 			"/>
			<polygon points="4.263,380.469 10.124,380.704 10.153,380.14 4.259,379.95 			"/>
			<polygon points="4.159,378.584 9.895,378.953 9.845,378.37 4.092,378.098 			"/>
			<polygon points="4.254,376.693 9.803,376.915 9.857,376.279 4.275,376.108 			"/>
			<polygon points="4.221,374.572 9.898,375.331 9.993,374.773 4.28,374.055 			"/>
			<polygon points="4.245,372.653 10.49,373.075 10.515,372.51 4.242,372.133 			"/>
		</g>
		<polygon fill="#FFFFFF" points="4.774,11.565 9.993,11.565 11.38,10.019 11.38,5.769 10.15,5.199 5.502,5.199 4.9,7.059 		"/>
		<polygon points="4.049,11.565 4.377,8.793 4.213,5.769 4.9,4.358 6.691,3.956 9.52,4.358 11.38,4.269 11.38,5.769 9.52,6.043 
			6.878,5.684 5.775,6.043 5.502,8.918 5.502,11.565 		"/>
		<polygon points="9.799,11.565 9.895,10.019 11.38,10.019 11.38,11.519 11.299,11.565 		"/>
		<polygon points="9.993,5.853 9.993,10.103 10.66,10.103 10.412,5.769 		"/>
		<polygon points="5.463,5.973 9.999,10.509 10.47,10.037 5.669,5.587 		"/>
		<polygon points="5.156,11.3 10.134,11.3 10.134,10.634 5.057,10.882 		"/>
		<g>
			<polygon fill="#FFFFFF" points="11.08,389.911 11.08,384.692 9.533,383.305 5.283,383.305 4.714,384.535 4.714,389.183 
				6.574,389.785 			"/>
			<polygon points="11.08,390.636 8.308,390.308 5.283,390.472 3.873,389.785 3.471,387.994 3.873,385.165 3.783,383.305 
				5.283,383.305 5.558,385.165 5.199,387.807 5.558,388.91 8.433,389.183 11.08,389.183 			"/>
			<polygon points="11.08,384.886 9.534,384.79 9.533,383.305 11.033,383.305 11.08,383.386 			"/>
			<polygon points="5.368,384.692 9.618,384.692 9.618,384.025 5.283,384.273 			"/>
			<polygon points="5.488,389.222 10.024,384.686 9.552,384.215 5.101,389.016 			"/>
			<polygon points="10.815,389.529 10.815,384.551 10.149,384.551 10.396,389.628 			"/>
		</g>
	</g>
	<text transform="matrix(1 0 0 1 36.2048 80.2711)"><tspan x="0" y="0" fill="#3C3C3B" font-family="'FiraSans-Bold'" font-size="12">4 JULY 2014</tspan><tspan x="0" y="14.4" fill="#3C3C3B" font-family="'FiraSans'" font-size="12">Abstract Submission Deadline</tspan><tspan x="0" y="43.2" fill="#3C3C3B" font-family="'FiraSans-Bold'" font-size="12">1 SEPTEMBER 2014</tspan><tspan x="0" y="57.6" fill="#3C3C3B" font-family="'FiraSans'" font-size="12">Authors notified</tspan><tspan x="0" y="86.4" fill="#3C3C3B" font-family="'FiraSans-Bold'" font-size="12">3 OCTOBER 2014</tspan><tspan x="0" y="100.8" fill="#3C3C3B" font-family="'FiraSans'" font-size="12">Paper submission deadline</tspan><tspan x="0" y="129.6" fill="#3C3C3B" font-family="'FiraSans-Bold'" font-size="12">12 DECEMBER 2014</tspan><tspan x="0" y="144" fill="#3C3C3B" font-family="'FiraSans'" font-size="12">Authors notified</tspan><tspan x="0" y="172.8" fill="#3C3C3B" font-family="'FiraSans-Bold'" font-size="12">9 JANUARY 2015</tspan><tspan x="0" y="187.2" fill="#3C3C3B" font-family="'FiraSans'" font-size="12">Final paper submission</tspan><tspan x="0" y="216" fill="#3C3C3B" font-family="'FiraSans-Bold'" font-size="12">27 FEBRUARY 2015</tspan><tspan x="0" y="230.4" fill="#3C3C3B" font-family="'FiraSans'" font-size="12">Artefact arrival date</tspan><tspan x="0" y="259.2" fill="#3C3C3B" font-family="'FiraSans-Bold'" font-size="12">25–37 MARCH 2015</tspan><tspan x="0" y="273.6" fill="#3C3C3B" font-family="'FiraSans'" font-size="12">RTD 2015 Conference</tspan></text>
	<g>
		<g>
			<polygon fill="#FFFFFF" points="136.383,383.761 136.716,389.114 127.903,390.199 119.903,389.797 106.213,389.797 
				100.958,389.797 94.892,389.507 90.028,389.507 85.341,389.114 85.341,383.895 96.698,383.386 101.216,384.636 115.591,384.366 
				124.308,384.366 132.493,383.761 			"/>
			<polygon points="136.716,384.136 127.841,384.886 119.341,384.511 115.091,384.511 109.966,384.511 105.841,384.511 
				102.341,384.886 95.966,384.136 89.591,384.511 85.341,384.09 85.341,382.59 90.216,383.011 95.091,382.886 97.966,382.886 
				101.716,383.761 104.466,383.761 107.216,383.761 113.716,383.761 118.716,383.761 124.091,383.761 128.341,383.761 
				136.716,382.636 			"/>
			<polygon points="136.716,389.886 127.841,390.636 119.341,390.261 115.091,390.261 109.966,390.261 105.841,390.261 
				102.341,390.636 95.966,389.886 89.591,390.261 85.341,389.84 85.341,388.386 90.216,388.761 95.091,388.636 97.966,388.636 
				101.716,389.511 104.466,389.511 107.216,389.511 113.716,389.511 118.716,389.511 124.091,389.511 128.341,389.511 
				136.716,388.386 			"/>
			<polygon points="136.716,388.386 136.716,384.136 136.049,384.136 136.297,388.471 			"/>
			<polygon points="134.652,388.722 135.013,384.148 134.43,384.189 134.166,388.777 			"/>
			<polygon points="133.074,389.049 132.547,384.366 131.912,384.41 132.493,389.114 			"/>
			<polygon points="130.912,389.484 130.884,384.517 130.319,384.514 130.393,389.507 			"/>
			<polygon points="129.296,389.561 128.745,384.625 128.183,384.681 128.783,389.639 			"/>
			<polygon points="126.784,389.737 127.153,384.599 126.57,384.644 126.298,389.797 			"/>
			<polygon points="124.893,389.652 125.115,384.681 124.479,384.633 124.308,389.633 			"/>
			<polygon points="122.772,389.681 123.531,384.597 122.973,384.511 122.255,389.629 			"/>
			<polygon points="120.853,389.643 121.088,384.394 120.523,384.368 120.333,389.647 			"/>
			<polygon points="118.343,389.729 118.711,383.994 118.128,384.044 117.856,389.797 			"/>
			<polygon points="116.451,389.635 116.673,384.086 116.037,384.031 115.866,389.614 			"/>
			<polygon points="114.33,389.668 115.089,383.991 114.531,383.895 113.813,389.609 			"/>
			<polygon points="112.411,389.643 112.646,384.394 112.081,384.368 111.891,389.647 			"/>
			<polygon points="109.467,389.729 109.835,383.994 109.252,384.044 108.98,389.797 			"/>
			<polygon points="107.575,389.635 107.797,384.086 107.161,384.031 106.99,389.614 			"/>
			<polygon points="105.454,389.668 106.213,383.991 105.655,383.895 104.937,389.609 			"/>
			<polygon points="103.535,389.643 103.77,384.394 103.205,384.368 103.015,389.647 			"/>
			<polygon points="100.589,389.737 100.958,384.599 100.375,384.644 100.103,389.797 			"/>
			<polygon points="98.698,389.635 98.92,384.086 98.284,384.031 98.113,389.614 			"/>
			<polygon points="96.576,389.668 97.336,383.991 96.778,383.895 96.06,389.609 			"/>
			<polygon points="94.658,389.625 94.892,383.764 94.328,383.736 94.138,389.629 			"/>
			<polygon points="92.773,389.729 93.141,383.994 92.558,384.044 92.286,389.797 			"/>
			<polygon points="90.881,389.635 91.103,384.086 90.467,384.031 90.296,389.614 			"/>
			<polygon points="88.76,389.668 89.519,383.991 88.961,383.895 88.243,389.609 			"/>
			<polygon points="86.841,389.643 87.263,383.399 86.699,383.374 86.321,389.647 			"/>
		</g>
		<g>
			<polygon fill="#FFFFFF" points="187.758,383.761 188.091,389.114 179.279,390.199 171.279,389.797 157.588,389.797 
				152.333,389.797 146.267,389.507 141.404,389.507 136.716,389.114 136.716,383.895 148.073,383.386 152.591,384.636 
				166.966,384.366 175.683,384.366 183.868,383.761 			"/>
			<polygon points="188.091,384.136 179.216,384.886 170.716,384.511 166.466,384.511 161.341,384.511 157.216,384.511 
				153.716,384.886 147.341,384.136 140.966,384.511 136.716,384.09 136.716,382.59 141.591,383.011 146.466,382.886 
				149.341,382.886 153.091,383.761 155.841,383.761 158.591,383.761 165.091,383.761 170.091,383.761 175.466,383.761 
				179.716,383.761 188.091,382.636 			"/>
			<polygon points="188.091,389.886 179.216,390.636 170.716,390.261 166.466,390.261 161.341,390.261 157.216,390.261 
				153.716,390.636 147.341,389.886 140.966,390.261 136.716,389.84 136.716,388.386 141.591,388.761 146.466,388.636 
				149.341,388.636 153.091,389.511 155.841,389.511 158.591,389.511 165.091,389.511 170.091,389.511 175.466,389.511 
				179.716,389.511 188.091,388.386 			"/>
			<polygon points="188.091,388.386 188.091,384.136 187.424,384.136 187.672,388.471 			"/>
			<polygon points="186.027,388.722 186.388,384.148 185.805,384.189 185.541,388.777 			"/>
			<polygon points="184.449,389.049 183.922,384.366 183.287,384.41 183.868,389.114 			"/>
			<polygon points="182.287,389.484 182.259,384.517 181.694,384.514 181.768,389.507 			"/>
			<polygon points="180.671,389.561 180.12,384.625 179.558,384.681 180.158,389.639 			"/>
			<polygon points="178.159,389.737 178.528,384.599 177.945,384.644 177.673,389.797 			"/>
			<polygon points="176.268,389.652 176.49,384.681 175.854,384.633 175.683,389.633 			"/>
			<polygon points="174.147,389.681 174.906,384.597 174.348,384.511 173.63,389.629 			"/>
			<polygon points="172.228,389.643 172.463,384.394 171.898,384.368 171.708,389.647 			"/>
			<polygon points="169.718,389.729 170.086,383.994 169.503,384.044 169.231,389.797 			"/>
			<polygon points="167.826,389.635 168.048,384.086 167.412,384.031 167.241,389.614 			"/>
			<polygon points="165.705,389.668 166.464,383.991 165.906,383.895 165.188,389.609 			"/>
			<polygon points="163.786,389.643 164.021,384.394 163.456,384.368 163.266,389.647 			"/>
			<polygon points="160.842,389.729 161.21,383.994 160.628,384.044 160.355,389.797 			"/>
			<polygon points="158.95,389.635 159.172,384.086 158.536,384.031 158.365,389.614 			"/>
			<polygon points="156.829,389.668 157.588,383.991 157.03,383.895 156.312,389.609 			"/>
			<polygon points="154.91,389.643 155.145,384.394 154.58,384.368 154.39,389.647 			"/>
			<polygon points="151.964,389.737 152.333,384.599 151.75,384.644 151.478,389.797 			"/>
			<polygon points="150.073,389.635 150.295,384.086 149.659,384.031 149.488,389.614 			"/>
			<polygon points="147.951,389.668 148.711,383.991 148.153,383.895 147.435,389.609 			"/>
			<polygon points="146.033,389.625 146.267,383.764 145.703,383.736 145.513,389.629 			"/>
			<polygon points="144.148,389.729 144.516,383.994 143.933,384.044 143.661,389.797 			"/>
			<polygon points="142.256,389.635 142.478,384.086 141.842,384.031 141.671,389.614 			"/>
			<polygon points="140.135,389.668 140.894,383.991 140.336,383.895 139.618,389.609 			"/>
			<polygon points="138.216,389.643 138.638,383.399 138.074,383.374 137.696,389.647 			"/>
		</g>
		<g>
			<polygon fill="#FFFFFF" points="239.133,383.761 239.466,389.114 230.654,390.199 222.654,389.797 208.963,389.797 
				203.708,389.797 197.642,389.507 192.779,389.507 188.091,389.114 188.091,383.895 199.448,383.386 203.966,384.636 
				218.341,384.366 227.058,384.366 235.243,383.761 			"/>
			<polygon points="239.466,384.136 230.591,384.886 222.091,384.511 217.841,384.511 212.716,384.511 208.591,384.511 
				205.091,384.886 198.716,384.136 192.341,384.511 188.091,384.09 188.091,382.59 192.966,383.011 197.841,382.886 
				200.716,382.886 204.466,383.761 207.216,383.761 209.966,383.761 216.466,383.761 221.466,383.761 226.841,383.761 
				231.091,383.761 239.466,382.636 			"/>
			<polygon points="239.466,389.886 230.591,390.636 222.091,390.261 217.841,390.261 212.716,390.261 208.591,390.261 
				205.091,390.636 198.716,389.886 192.341,390.261 188.091,389.84 188.091,388.386 192.966,388.761 197.841,388.636 
				200.716,388.636 204.466,389.511 207.216,389.511 209.966,389.511 216.466,389.511 221.466,389.511 226.841,389.511 
				231.091,389.511 239.466,388.386 			"/>
			<polygon points="239.466,388.386 239.466,384.136 238.799,384.136 239.047,388.471 			"/>
			<polygon points="237.403,388.722 237.763,384.148 237.18,384.189 236.916,388.777 			"/>
			<polygon points="235.824,389.049 235.297,384.366 234.662,384.41 235.243,389.114 			"/>
			<polygon points="233.662,389.484 233.634,384.517 233.069,384.514 233.143,389.507 			"/>
			<polygon points="232.046,389.561 231.495,384.625 230.933,384.681 231.533,389.639 			"/>
			<polygon points="229.534,389.737 229.903,384.599 229.32,384.644 229.048,389.797 			"/>
			<polygon points="227.643,389.652 227.865,384.681 227.229,384.633 227.058,389.633 			"/>
			<polygon points="225.522,389.681 226.281,384.597 225.723,384.511 225.005,389.629 			"/>
			<polygon points="223.603,389.643 223.838,384.394 223.273,384.368 223.083,389.647 			"/>
			<polygon points="221.093,389.729 221.461,383.994 220.878,384.044 220.606,389.797 			"/>
			<polygon points="219.201,389.635 219.423,384.086 218.787,384.031 218.616,389.614 			"/>
			<polygon points="217.08,389.668 217.839,383.991 217.281,383.895 216.563,389.609 			"/>
			<polygon points="215.161,389.643 215.396,384.394 214.831,384.368 214.641,389.647 			"/>
			<polygon points="212.217,389.729 212.585,383.994 212.003,384.044 211.73,389.797 			"/>
			<polygon points="210.325,389.635 210.547,384.086 209.911,384.031 209.74,389.614 			"/>
			<polygon points="208.204,389.668 208.963,383.991 208.405,383.895 207.687,389.609 			"/>
			<polygon points="206.285,389.643 206.52,384.394 205.955,384.368 205.765,389.647 			"/>
			<polygon points="203.339,389.737 203.708,384.599 203.125,384.644 202.853,389.797 			"/>
			<polygon points="201.448,389.635 201.67,384.086 201.034,384.031 200.863,389.614 			"/>
			<polygon points="199.326,389.668 200.086,383.991 199.528,383.895 198.81,389.609 			"/>
			<polygon points="197.408,389.625 197.642,383.764 197.078,383.736 196.888,389.629 			"/>
			<polygon points="195.523,389.729 195.891,383.994 195.308,384.044 195.036,389.797 			"/>
			<polygon points="193.631,389.635 193.853,384.086 193.217,384.031 193.046,389.614 			"/>
			<polygon points="191.51,389.668 192.269,383.991 191.711,383.895 190.993,389.609 			"/>
			<polygon points="189.591,389.643 190.013,383.399 189.449,383.374 189.071,389.647 			"/>
		</g>
		<g>
			<polygon fill="#FFFFFF" points="136.947,4.695 137.28,10.048 128.468,11.133 120.468,10.731 106.778,10.731 101.522,10.731 
				95.457,10.441 90.593,10.441 85.905,10.048 85.905,4.829 97.262,4.32 101.78,5.57 116.155,5.299 124.872,5.299 133.057,4.695 			
				"/>
			<polygon points="137.28,5.07 128.405,5.82 119.905,5.445 115.655,5.445 110.53,5.445 106.405,5.445 102.905,5.82 96.53,5.07 
				90.155,5.445 85.905,5.024 85.905,3.524 90.78,3.945 95.655,3.82 98.53,3.82 102.28,4.695 105.03,4.695 107.78,4.695 
				114.28,4.695 119.28,4.695 124.655,4.695 128.905,4.695 137.28,3.57 			"/>
			<polygon points="137.28,10.82 128.405,11.57 119.905,11.195 115.655,11.195 110.53,11.195 106.405,11.195 102.905,11.57 
				96.53,10.82 90.155,11.195 85.905,10.774 85.905,9.32 90.78,9.695 95.655,9.57 98.53,9.57 102.28,10.445 105.03,10.445 
				107.78,10.445 114.28,10.445 119.28,10.445 124.655,10.445 128.905,10.445 137.28,9.32 			"/>
			<polygon points="137.28,9.32 137.28,5.07 136.614,5.07 136.861,9.405 			"/>
			<polygon points="135.217,9.656 135.577,5.082 134.994,5.123 134.73,9.71 			"/>
			<polygon points="133.638,9.983 133.112,5.299 132.476,5.344 133.057,10.048 			"/>
			<polygon points="131.476,10.418 131.448,5.451 130.884,5.448 130.958,10.441 			"/>
			<polygon points="129.86,10.495 129.309,5.558 128.747,5.615 129.347,10.573 			"/>
			<polygon points="127.349,10.67 127.717,5.533 127.135,5.578 126.862,10.731 			"/>
			<polygon points="125.457,10.586 125.679,5.615 125.043,5.567 124.872,10.567 			"/>
			<polygon points="123.336,10.615 124.095,5.531 123.537,5.445 122.819,10.563 			"/>
			<polygon points="121.417,10.577 121.652,5.328 121.087,5.302 120.897,10.581 			"/>
			<polygon points="118.907,10.663 119.276,4.927 118.693,4.978 118.42,10.731 			"/>
			<polygon points="117.015,10.569 117.237,5.02 116.602,4.965 116.43,10.547 			"/>
			<polygon points="114.894,10.602 115.654,4.925 115.095,4.829 114.377,10.543 			"/>
			<polygon points="112.975,10.577 113.21,5.328 112.646,5.302 112.456,10.581 			"/>
			<polygon points="110.031,10.663 110.4,4.927 109.817,4.978 109.544,10.731 			"/>
			<polygon points="108.139,10.569 108.361,5.02 107.726,4.965 107.555,10.547 			"/>
			<polygon points="106.018,10.602 106.778,4.925 106.219,4.829 105.501,10.543 			"/>
			<polygon points="104.099,10.577 104.334,5.328 103.77,5.302 103.58,10.581 			"/>
			<polygon points="101.153,10.67 101.522,5.533 100.939,5.578 100.667,10.731 			"/>
			<polygon points="99.262,10.569 99.484,5.02 98.848,4.965 98.677,10.547 			"/>
			<polygon points="97.141,10.602 97.9,4.925 97.342,4.829 96.624,10.543 			"/>
			<polygon points="95.222,10.559 95.457,4.698 94.892,4.67 94.702,10.563 			"/>
			<polygon points="93.337,10.663 93.706,4.927 93.123,4.978 92.85,10.731 			"/>
			<polygon points="91.445,10.569 91.667,5.02 91.032,4.965 90.86,10.547 			"/>
			<polygon points="89.324,10.602 90.084,4.925 89.525,4.829 88.807,10.543 			"/>
			<polygon points="87.405,10.577 87.827,4.333 87.263,4.308 86.886,10.581 			"/>
		</g>
		<g>
			<polygon fill="#FFFFFF" points="188.322,4.695 188.655,10.048 179.843,11.133 171.843,10.731 158.153,10.731 152.897,10.731 
				146.832,10.441 141.968,10.441 137.28,10.048 137.28,4.829 148.637,4.32 153.155,5.57 167.53,5.299 176.247,5.299 184.432,4.695 
							"/>
			<polygon points="188.655,5.07 179.78,5.82 171.28,5.445 167.03,5.445 161.905,5.445 157.78,5.445 154.28,5.82 147.905,5.07 
				141.53,5.445 137.28,5.024 137.28,3.524 142.155,3.945 147.03,3.82 149.905,3.82 153.655,4.695 156.405,4.695 159.155,4.695 
				165.655,4.695 170.655,4.695 176.03,4.695 180.28,4.695 188.655,3.57 			"/>
			<polygon points="188.655,10.82 179.78,11.57 171.28,11.195 167.03,11.195 161.905,11.195 157.78,11.195 154.28,11.57 
				147.905,10.82 141.53,11.195 137.28,10.774 137.28,9.32 142.155,9.695 147.03,9.57 149.905,9.57 153.655,10.445 156.405,10.445 
				159.155,10.445 165.655,10.445 170.655,10.445 176.03,10.445 180.28,10.445 188.655,9.32 			"/>
			<polygon points="188.655,9.32 188.655,5.07 187.989,5.07 188.236,9.405 			"/>
			<polygon points="186.592,9.656 186.952,5.082 186.369,5.123 186.105,9.71 			"/>
			<polygon points="185.013,9.983 184.487,5.299 183.851,5.344 184.432,10.048 			"/>
			<polygon points="182.851,10.418 182.823,5.451 182.259,5.448 182.333,10.441 			"/>
			<polygon points="181.235,10.495 180.684,5.558 180.122,5.615 180.722,10.573 			"/>
			<polygon points="178.724,10.67 179.092,5.533 178.51,5.578 178.237,10.731 			"/>
			<polygon points="176.832,10.586 177.054,5.615 176.418,5.567 176.247,10.567 			"/>
			<polygon points="174.711,10.615 175.47,5.531 174.912,5.445 174.194,10.563 			"/>
			<polygon points="172.792,10.577 173.027,5.328 172.462,5.302 172.272,10.581 			"/>
			<polygon points="170.282,10.663 170.651,4.927 170.068,4.978 169.795,10.731 			"/>
			<polygon points="168.39,10.569 168.612,5.02 167.977,4.965 167.805,10.547 			"/>
			<polygon points="166.269,10.602 167.029,4.925 166.47,4.829 165.752,10.543 			"/>
			<polygon points="164.35,10.577 164.585,5.328 164.021,5.302 163.831,10.581 			"/>
			<polygon points="161.406,10.663 161.775,4.927 161.192,4.978 160.919,10.731 			"/>
			<polygon points="159.514,10.569 159.736,5.02 159.101,4.965 158.93,10.547 			"/>
			<polygon points="157.393,10.602 158.153,4.925 157.594,4.829 156.877,10.543 			"/>
			<polygon points="155.474,10.577 155.709,5.328 155.145,5.302 154.955,10.581 			"/>
			<polygon points="152.528,10.67 152.897,5.533 152.314,5.578 152.042,10.731 			"/>
			<polygon points="150.637,10.569 150.859,5.02 150.223,4.965 150.052,10.547 			"/>
			<polygon points="148.516,10.602 149.275,4.925 148.717,4.829 147.999,10.543 			"/>
			<polygon points="146.597,10.559 146.832,4.698 146.267,4.67 146.077,10.563 			"/>
			<polygon points="144.712,10.663 145.081,4.927 144.498,4.978 144.225,10.731 			"/>
			<polygon points="142.82,10.569 143.042,5.02 142.407,4.965 142.235,10.547 			"/>
			<polygon points="140.699,10.602 141.459,4.925 140.9,4.829 140.182,10.543 			"/>
			<polygon points="138.78,10.577 139.202,4.333 138.638,4.308 138.261,10.581 			"/>
		</g>
		<g>
			<polygon fill="#FFFFFF" points="239.697,4.695 240.03,10.048 231.218,11.133 223.218,10.731 209.528,10.731 204.272,10.731 
				198.207,10.441 193.343,10.441 188.655,10.048 188.655,4.829 200.012,4.32 204.53,5.57 218.905,5.299 227.622,5.299 
				235.807,4.695 			"/>
			<polygon points="240.03,5.07 231.155,5.82 222.655,5.445 218.405,5.445 213.28,5.445 209.155,5.445 205.655,5.82 199.28,5.07 
				192.905,5.445 188.655,5.024 188.655,3.524 193.53,3.945 198.405,3.82 201.28,3.82 205.03,4.695 207.78,4.695 210.53,4.695 
				217.03,4.695 222.03,4.695 227.405,4.695 231.655,4.695 240.03,3.57 			"/>
			<polygon points="240.03,10.82 231.155,11.57 222.655,11.195 218.405,11.195 213.28,11.195 209.155,11.195 205.655,11.57 
				199.28,10.82 192.905,11.195 188.655,10.774 188.655,9.32 193.53,9.695 198.405,9.57 201.28,9.57 205.03,10.445 207.78,10.445 
				210.53,10.445 217.03,10.445 222.03,10.445 227.405,10.445 231.655,10.445 240.03,9.32 			"/>
			<polygon points="240.03,9.32 240.03,5.07 239.364,5.07 239.611,9.405 			"/>
			<polygon points="237.967,9.656 238.327,5.082 237.744,5.123 237.48,9.71 			"/>
			<polygon points="236.388,9.983 235.862,5.299 235.226,5.344 235.807,10.048 			"/>
			<polygon points="234.226,10.418 234.198,5.451 233.634,5.448 233.708,10.441 			"/>
			<polygon points="232.61,10.495 232.059,5.558 231.497,5.615 232.097,10.573 			"/>
			<polygon points="230.099,10.67 230.467,5.533 229.885,5.578 229.612,10.731 			"/>
			<polygon points="228.207,10.586 228.429,5.615 227.793,5.567 227.622,10.567 			"/>
			<polygon points="226.086,10.615 226.845,5.531 226.287,5.445 225.569,10.563 			"/>
			<polygon points="224.167,10.577 224.402,5.328 223.837,5.302 223.647,10.581 			"/>
			<polygon points="221.657,10.663 222.026,4.927 221.443,4.978 221.17,10.731 			"/>
			<polygon points="219.765,10.569 219.987,5.02 219.352,4.965 219.181,10.547 			"/>
			<polygon points="217.644,10.602 218.404,4.925 217.845,4.829 217.127,10.543 			"/>
			<polygon points="215.725,10.577 215.96,5.328 215.396,5.302 215.206,10.581 			"/>
			<polygon points="212.781,10.663 213.15,4.927 212.567,4.978 212.294,10.731 			"/>
			<polygon points="210.889,10.569 211.111,5.02 210.476,4.965 210.305,10.547 			"/>
			<polygon points="208.768,10.602 209.528,4.925 208.969,4.829 208.252,10.543 			"/>
			<polygon points="206.849,10.577 207.084,5.328 206.52,5.302 206.33,10.581 			"/>
			<polygon points="203.903,10.67 204.272,5.533 203.689,5.578 203.417,10.731 			"/>
			<polygon points="202.012,10.569 202.234,5.02 201.598,4.965 201.427,10.547 			"/>
			<polygon points="199.891,10.602 200.65,4.925 200.092,4.829 199.374,10.543 			"/>
			<polygon points="197.972,10.559 198.207,4.698 197.642,4.67 197.452,10.563 			"/>
			<polygon points="196.087,10.663 196.456,4.927 195.873,4.978 195.6,10.731 			"/>
			<polygon points="194.195,10.569 194.417,5.02 193.782,4.965 193.61,10.547 			"/>
			<polygon points="192.074,10.602 192.834,4.925 192.275,4.829 191.557,10.543 			"/>
			<polygon points="190.155,10.577 190.577,4.333 190.013,4.308 189.636,10.581 			"/>
		</g>
		<g>
			<polygon fill="#FFFFFF" points="240.718,331.549 246.071,331.215 247.156,340.028 246.754,348.028 246.754,361.718 
				246.754,366.973 246.464,373.039 246.464,377.903 246.071,382.59 240.852,382.59 240.343,371.233 241.593,366.715 
				241.322,352.34 241.322,343.623 240.718,335.438 			"/>
			<polygon points="241.093,331.215 241.843,340.09 241.468,348.59 241.468,352.84 241.468,357.965 241.468,362.09 241.843,365.59 
				241.093,371.965 241.468,378.34 241.047,382.59 239.547,382.59 239.968,377.715 239.843,372.84 239.843,369.965 240.718,366.215 
				240.718,363.465 240.718,360.715 240.718,354.215 240.718,349.215 240.718,343.84 240.718,339.59 239.593,331.215 			"/>
			<polygon points="246.843,331.215 247.593,340.09 247.218,348.59 247.218,352.84 247.218,357.965 247.218,362.09 247.593,365.59 
				246.843,371.965 247.218,378.34 246.797,382.59 245.343,382.59 245.718,377.715 245.593,372.84 245.593,369.965 246.468,366.215 
				246.468,363.465 246.468,360.715 246.468,354.215 246.468,349.215 246.468,343.84 246.468,339.59 245.343,331.215 			"/>
			<polygon points="245.343,331.215 241.093,331.215 241.093,331.882 245.428,331.634 			"/>
			<polygon points="245.679,333.279 241.105,332.918 241.146,333.501 245.733,333.765 			"/>
			<polygon points="246.006,334.857 241.322,335.384 241.367,336.02 246.071,335.438 			"/>
			<polygon points="246.441,337.019 241.474,337.047 241.471,337.612 246.464,337.538 			"/>
			<polygon points="246.518,338.635 241.581,339.186 241.638,339.748 246.596,339.149 			"/>
			<polygon points="246.693,341.147 241.556,340.778 241.601,341.361 246.754,341.633 			"/>
			<polygon points="246.609,343.038 241.638,342.816 241.59,343.452 246.59,343.623 			"/>
			<polygon points="246.638,345.16 241.554,344.4 241.468,344.958 246.585,345.676 			"/>
			<polygon points="246.6,347.078 241.35,346.844 241.325,347.408 246.604,347.598 			"/>
			<polygon points="246.686,349.589 240.95,349.22 241.001,349.803 246.754,350.075 			"/>
			<polygon points="246.592,351.48 241.043,351.258 240.988,351.894 246.57,352.065 			"/>
			<polygon points="246.625,353.601 240.948,352.842 240.852,353.4 246.566,354.118 			"/>
			<polygon points="246.6,355.52 241.35,355.285 241.325,355.85 246.604,356.04 			"/>
			<polygon points="246.686,358.465 240.95,358.096 241.001,358.679 246.754,358.951 			"/>
			<polygon points="246.592,360.356 241.043,360.134 240.988,360.77 246.57,360.941 			"/>
			<polygon points="246.625,362.477 240.948,361.718 240.852,362.276 246.566,362.994 			"/>
			<polygon points="246.6,364.396 241.35,364.161 241.325,364.726 246.604,364.916 			"/>
			<polygon points="246.693,367.342 241.556,366.973 241.601,367.556 246.754,367.829 			"/>
			<polygon points="246.592,369.233 241.043,369.012 240.988,369.647 246.57,369.818 			"/>
			<polygon points="246.625,371.355 240.948,370.595 240.852,371.154 246.566,371.871 			"/>
			<polygon points="246.582,373.274 240.721,373.039 240.693,373.603 246.586,373.793 			"/>
			<polygon points="246.686,375.159 240.95,374.79 241.001,375.373 246.754,375.645 			"/>
			<polygon points="246.592,377.05 241.043,376.828 240.988,377.464 246.57,377.635 			"/>
			<polygon points="246.625,379.171 240.948,378.412 240.852,378.97 246.566,379.688 			"/>
			<polygon points="246.6,381.09 240.356,380.668 240.331,381.233 246.604,381.61 			"/>
		</g>
		<g>
			<polygon fill="#FFFFFF" points="240.718,280.174 246.071,279.84 247.156,288.653 246.754,296.653 246.754,310.343 
				246.754,315.598 246.464,321.664 246.464,326.528 246.071,331.215 240.852,331.215 240.343,319.858 241.593,315.34 
				241.322,300.965 241.322,292.248 240.718,284.063 			"/>
			<polygon points="241.093,279.84 241.843,288.715 241.468,297.215 241.468,301.465 241.468,306.59 241.468,310.715 
				241.843,314.215 241.093,320.59 241.468,326.965 241.047,331.215 239.547,331.215 239.968,326.34 239.843,321.465 
				239.843,318.59 240.718,314.84 240.718,312.09 240.718,309.34 240.718,302.84 240.718,297.84 240.718,292.465 240.718,288.215 
				239.593,279.84 			"/>
			<polygon points="246.843,279.84 247.593,288.715 247.218,297.215 247.218,301.465 247.218,306.59 247.218,310.715 
				247.593,314.215 246.843,320.59 247.218,326.965 246.797,331.215 245.343,331.215 245.718,326.34 245.593,321.465 
				245.593,318.59 246.468,314.84 246.468,312.09 246.468,309.34 246.468,302.84 246.468,297.84 246.468,292.465 246.468,288.215 
				245.343,279.84 			"/>
			<polygon points="245.343,279.84 241.093,279.84 241.093,280.507 245.428,280.259 			"/>
			<polygon points="245.679,281.904 241.105,281.543 241.146,282.126 245.733,282.39 			"/>
			<polygon points="246.006,283.482 241.322,284.009 241.367,284.645 246.071,284.063 			"/>
			<polygon points="246.441,285.644 241.474,285.672 241.471,286.237 246.464,286.163 			"/>
			<polygon points="246.518,287.26 241.581,287.811 241.638,288.373 246.596,287.774 			"/>
			<polygon points="246.693,289.772 241.556,289.403 241.601,289.986 246.754,290.258 			"/>
			<polygon points="246.609,291.663 241.638,291.441 241.59,292.077 246.59,292.248 			"/>
			<polygon points="246.638,293.785 241.554,293.025 241.468,293.583 246.585,294.301 			"/>
			<polygon points="246.6,295.703 241.35,295.469 241.325,296.033 246.604,296.223 			"/>
			<polygon points="246.686,298.214 240.95,297.845 241.001,298.428 246.754,298.7 			"/>
			<polygon points="246.592,300.105 241.043,299.883 240.988,300.519 246.57,300.69 			"/>
			<polygon points="246.625,302.226 240.948,301.467 240.852,302.025 246.566,302.743 			"/>
			<polygon points="246.6,304.145 241.35,303.91 241.325,304.475 246.604,304.665 			"/>
			<polygon points="246.686,307.09 240.95,306.721 241.001,307.304 246.754,307.576 			"/>
			<polygon points="246.592,308.981 241.043,308.759 240.988,309.395 246.57,309.566 			"/>
			<polygon points="246.625,311.102 240.948,310.343 240.852,310.901 246.566,311.619 			"/>
			<polygon points="246.6,313.021 241.35,312.786 241.325,313.351 246.604,313.541 			"/>
			<polygon points="246.693,315.967 241.556,315.598 241.601,316.181 246.754,316.454 			"/>
			<polygon points="246.592,317.858 241.043,317.637 240.988,318.272 246.57,318.443 			"/>
			<polygon points="246.625,319.98 240.948,319.22 240.852,319.779 246.566,320.496 			"/>
			<polygon points="246.582,321.899 240.721,321.664 240.693,322.228 246.586,322.418 			"/>
			<polygon points="246.686,323.784 240.95,323.415 241.001,323.998 246.754,324.27 			"/>
			<polygon points="246.592,325.675 241.043,325.453 240.988,326.089 246.57,326.26 			"/>
			<polygon points="246.625,327.796 240.948,327.037 240.852,327.595 246.566,328.313 			"/>
			<polygon points="246.6,329.715 240.356,329.293 240.331,329.858 246.604,330.235 			"/>
		</g>
		<g>
			<polygon fill="#FFFFFF" points="240.718,228.799 246.071,228.465 247.156,237.278 246.754,245.278 246.754,258.968 
				246.754,264.223 246.464,270.289 246.464,275.153 246.071,279.84 240.852,279.84 240.343,268.483 241.593,263.965 
				241.322,249.59 241.322,240.873 240.718,232.688 			"/>
			<polygon points="241.093,228.465 241.843,237.34 241.468,245.84 241.468,250.09 241.468,255.215 241.468,259.34 241.843,262.84 
				241.093,269.215 241.468,275.59 241.047,279.84 239.547,279.84 239.968,274.965 239.843,270.09 239.843,267.215 240.718,263.465 
				240.718,260.715 240.718,257.965 240.718,251.465 240.718,246.465 240.718,241.09 240.718,236.84 239.593,228.465 			"/>
			<polygon points="246.843,228.465 247.593,237.34 247.218,245.84 247.218,250.09 247.218,255.215 247.218,259.34 247.593,262.84 
				246.843,269.215 247.218,275.59 246.797,279.84 245.343,279.84 245.718,274.965 245.593,270.09 245.593,267.215 246.468,263.465 
				246.468,260.715 246.468,257.965 246.468,251.465 246.468,246.465 246.468,241.09 246.468,236.84 245.343,228.465 			"/>
			<polygon points="245.343,228.465 241.093,228.465 241.093,229.132 245.428,228.884 			"/>
			<polygon points="245.679,230.529 241.105,230.168 241.146,230.751 245.733,231.015 			"/>
			<polygon points="246.006,232.107 241.322,232.634 241.367,233.27 246.071,232.688 			"/>
			<polygon points="246.441,234.269 241.474,234.297 241.471,234.862 246.464,234.788 			"/>
			<polygon points="246.518,235.885 241.581,236.436 241.638,236.998 246.596,236.399 			"/>
			<polygon points="246.693,238.397 241.556,238.028 241.601,238.611 246.754,238.883 			"/>
			<polygon points="246.609,240.288 241.638,240.066 241.59,240.702 246.59,240.873 			"/>
			<polygon points="246.638,242.41 241.554,241.65 241.468,242.208 246.585,242.926 			"/>
			<polygon points="246.6,244.328 241.35,244.094 241.325,244.658 246.604,244.848 			"/>
			<polygon points="246.686,246.839 240.95,246.47 241.001,247.053 246.754,247.325 			"/>
			<polygon points="246.592,248.73 241.043,248.508 240.988,249.144 246.57,249.315 			"/>
			<polygon points="246.625,250.851 240.948,250.092 240.852,250.65 246.566,251.368 			"/>
			<polygon points="246.6,252.77 241.35,252.535 241.325,253.1 246.604,253.29 			"/>
			<polygon points="246.686,255.715 240.95,255.346 241.001,255.929 246.754,256.201 			"/>
			<polygon points="246.592,257.606 241.043,257.384 240.988,258.02 246.57,258.191 			"/>
			<polygon points="246.625,259.727 240.948,258.968 240.852,259.526 246.566,260.244 			"/>
			<polygon points="246.6,261.646 241.35,261.411 241.325,261.976 246.604,262.166 			"/>
			<polygon points="246.693,264.592 241.556,264.223 241.601,264.806 246.754,265.079 			"/>
			<polygon points="246.592,266.483 241.043,266.262 240.988,266.897 246.57,267.068 			"/>
			<polygon points="246.625,268.605 240.948,267.845 240.852,268.404 246.566,269.121 			"/>
			<polygon points="246.582,270.524 240.721,270.289 240.693,270.853 246.586,271.043 			"/>
			<polygon points="246.686,272.409 240.95,272.04 241.001,272.623 246.754,272.895 			"/>
			<polygon points="246.592,274.3 241.043,274.078 240.988,274.714 246.57,274.885 			"/>
			<polygon points="246.625,276.421 240.948,275.662 240.852,276.22 246.566,276.938 			"/>
			<polygon points="246.6,278.34 240.356,277.918 240.331,278.483 246.604,278.86 			"/>
		</g>
		<g>
			<polygon fill="#FFFFFF" points="240.718,177.424 246.071,177.09 247.156,185.903 246.754,193.903 246.754,207.593 
				246.754,212.848 246.464,218.914 246.464,223.778 246.071,228.465 240.852,228.465 240.343,217.108 241.593,212.59 
				241.322,198.215 241.322,189.498 240.718,181.313 			"/>
			<polygon points="241.093,177.09 241.843,185.965 241.468,194.465 241.468,198.715 241.468,203.84 241.468,207.965 
				241.843,211.465 241.093,217.84 241.468,224.215 241.047,228.465 239.547,228.465 239.968,223.59 239.843,218.715 
				239.843,215.84 240.718,212.09 240.718,209.34 240.718,206.59 240.718,200.09 240.718,195.09 240.718,189.715 240.718,185.465 
				239.593,177.09 			"/>
			<polygon points="246.843,177.09 247.593,185.965 247.218,194.465 247.218,198.715 247.218,203.84 247.218,207.965 
				247.593,211.465 246.843,217.84 247.218,224.215 246.797,228.465 245.343,228.465 245.718,223.59 245.593,218.715 
				245.593,215.84 246.468,212.09 246.468,209.34 246.468,206.59 246.468,200.09 246.468,195.09 246.468,189.715 246.468,185.465 
				245.343,177.09 			"/>
			<polygon points="245.343,177.09 241.093,177.09 241.093,177.757 245.428,177.509 			"/>
			<polygon points="245.679,179.154 241.105,178.793 241.146,179.376 245.733,179.64 			"/>
			<polygon points="246.006,180.732 241.322,181.259 241.367,181.895 246.071,181.313 			"/>
			<polygon points="246.441,182.894 241.474,182.922 241.471,183.487 246.464,183.413 			"/>
			<polygon points="246.518,184.51 241.581,185.061 241.638,185.623 246.596,185.024 			"/>
			<polygon points="246.693,187.022 241.556,186.653 241.601,187.236 246.754,187.508 			"/>
			<polygon points="246.609,188.913 241.638,188.691 241.59,189.327 246.59,189.498 			"/>
			<polygon points="246.638,191.035 241.554,190.275 241.468,190.833 246.585,191.551 			"/>
			<polygon points="246.6,192.953 241.35,192.719 241.325,193.283 246.604,193.473 			"/>
			<polygon points="246.686,195.464 240.95,195.095 241.001,195.678 246.754,195.95 			"/>
			<polygon points="246.592,197.355 241.043,197.133 240.988,197.769 246.57,197.94 			"/>
			<polygon points="246.625,199.476 240.948,198.717 240.852,199.275 246.566,199.993 			"/>
			<polygon points="246.6,201.395 241.35,201.16 241.325,201.725 246.604,201.915 			"/>
			<polygon points="246.686,204.34 240.95,203.971 241.001,204.554 246.754,204.826 			"/>
			<polygon points="246.592,206.231 241.043,206.009 240.988,206.645 246.57,206.816 			"/>
			<polygon points="246.625,208.352 240.948,207.593 240.852,208.151 246.566,208.869 			"/>
			<polygon points="246.6,210.271 241.35,210.036 241.325,210.601 246.604,210.791 			"/>
			<polygon points="246.693,213.217 241.556,212.848 241.601,213.431 246.754,213.704 			"/>
			<polygon points="246.592,215.108 241.043,214.886 240.988,215.522 246.57,215.693 			"/>
			<polygon points="246.625,217.23 240.948,216.47 240.852,217.029 246.566,217.746 			"/>
			<polygon points="246.582,219.149 240.721,218.914 240.693,219.478 246.586,219.668 			"/>
			<polygon points="246.686,221.034 240.95,220.665 241.001,221.248 246.754,221.52 			"/>
			<polygon points="246.592,222.925 241.043,222.703 240.988,223.339 246.57,223.51 			"/>
			<polygon points="246.625,225.046 240.948,224.287 240.852,224.845 246.566,225.563 			"/>
			<polygon points="246.6,226.965 240.356,226.543 240.331,227.108 246.604,227.485 			"/>
		</g>
		<g>
			<polygon fill="#FFFFFF" points="240.718,126.049 246.071,125.715 247.156,134.528 246.754,142.528 246.754,156.218 
				246.754,161.473 246.464,167.539 246.464,172.403 246.071,177.09 240.852,177.09 240.343,165.733 241.593,161.215 
				241.322,146.84 241.322,138.123 240.718,129.938 			"/>
			<polygon points="241.093,125.715 241.843,134.59 241.468,143.09 241.468,147.34 241.468,152.465 241.468,156.59 241.843,160.09 
				241.093,166.465 241.468,172.84 241.047,177.09 239.547,177.09 239.968,172.215 239.843,167.34 239.843,164.465 240.718,160.715 
				240.718,157.965 240.718,155.215 240.718,148.715 240.718,143.715 240.718,138.34 240.718,134.09 239.593,125.715 			"/>
			<polygon points="246.843,125.715 247.593,134.59 247.218,143.09 247.218,147.34 247.218,152.465 247.218,156.59 247.593,160.09 
				246.843,166.465 247.218,172.84 246.797,177.09 245.343,177.09 245.718,172.215 245.593,167.34 245.593,164.465 246.468,160.715 
				246.468,157.965 246.468,155.215 246.468,148.715 246.468,143.715 246.468,138.34 246.468,134.09 245.343,125.715 			"/>
			<polygon points="245.343,125.715 241.093,125.715 241.093,126.382 245.428,126.134 			"/>
			<polygon points="245.679,127.779 241.105,127.418 241.146,128.001 245.733,128.265 			"/>
			<polygon points="246.006,129.357 241.322,129.884 241.367,130.52 246.071,129.938 			"/>
			<polygon points="246.441,131.519 241.474,131.547 241.471,132.112 246.464,132.038 			"/>
			<polygon points="246.518,133.135 241.581,133.686 241.638,134.248 246.596,133.649 			"/>
			<polygon points="246.693,135.647 241.556,135.278 241.601,135.861 246.754,136.133 			"/>
			<polygon points="246.609,137.538 241.638,137.316 241.59,137.952 246.59,138.123 			"/>
			<polygon points="246.638,139.66 241.554,138.9 241.468,139.458 246.585,140.176 			"/>
			<polygon points="246.6,141.578 241.35,141.344 241.325,141.908 246.604,142.098 			"/>
			<polygon points="246.686,144.089 240.95,143.72 241.001,144.303 246.754,144.575 			"/>
			<polygon points="246.592,145.98 241.043,145.758 240.988,146.394 246.57,146.565 			"/>
			<polygon points="246.625,148.101 240.948,147.342 240.852,147.9 246.566,148.618 			"/>
			<polygon points="246.6,150.02 241.35,149.785 241.325,150.35 246.604,150.54 			"/>
			<polygon points="246.686,152.965 240.95,152.596 241.001,153.179 246.754,153.451 			"/>
			<polygon points="246.592,154.856 241.043,154.634 240.988,155.27 246.57,155.441 			"/>
			<polygon points="246.625,156.977 240.948,156.218 240.852,156.776 246.566,157.494 			"/>
			<polygon points="246.6,158.896 241.35,158.661 241.325,159.226 246.604,159.416 			"/>
			<polygon points="246.693,161.842 241.556,161.473 241.601,162.056 246.754,162.329 			"/>
			<polygon points="246.592,163.733 241.043,163.511 240.988,164.147 246.57,164.318 			"/>
			<polygon points="246.625,165.855 240.948,165.095 240.852,165.654 246.566,166.371 			"/>
			<polygon points="246.582,167.774 240.721,167.539 240.693,168.103 246.586,168.293 			"/>
			<polygon points="246.686,169.659 240.95,169.29 241.001,169.873 246.754,170.145 			"/>
			<polygon points="246.592,171.55 241.043,171.328 240.988,171.964 246.57,172.135 			"/>
			<polygon points="246.625,173.671 240.948,172.912 240.852,173.47 246.566,174.188 			"/>
			<polygon points="246.6,175.59 240.356,175.168 240.331,175.733 246.604,176.11 			"/>
		</g>
		<g>
			<polygon fill="#FFFFFF" points="240.718,74.673 246.071,74.34 247.156,83.153 246.754,91.153 246.754,104.843 246.754,110.098 
				246.464,116.164 246.464,121.028 246.071,125.715 240.852,125.715 240.343,114.358 241.593,109.84 241.322,95.465 
				241.322,86.748 240.718,78.563 			"/>
			<polygon points="241.093,74.34 241.843,83.215 241.468,91.715 241.468,95.965 241.468,101.09 241.468,105.215 241.843,108.715 
				241.093,115.09 241.468,121.465 241.047,125.715 239.547,125.715 239.968,120.84 239.843,115.965 239.843,113.09 240.718,109.34 
				240.718,106.59 240.718,103.84 240.718,97.34 240.718,92.34 240.718,86.965 240.718,82.715 239.593,74.34 			"/>
			<polygon points="246.843,74.34 247.593,83.215 247.218,91.715 247.218,95.965 247.218,101.09 247.218,105.215 247.593,108.715 
				246.843,115.09 247.218,121.465 246.797,125.715 245.343,125.715 245.718,120.84 245.593,115.965 245.593,113.09 246.468,109.34 
				246.468,106.59 246.468,103.84 246.468,97.34 246.468,92.34 246.468,86.965 246.468,82.715 245.343,74.34 			"/>
			<polygon points="245.343,74.34 241.093,74.34 241.093,75.007 245.428,74.759 			"/>
			<polygon points="245.679,76.404 241.105,76.043 241.146,76.626 245.733,76.89 			"/>
			<polygon points="246.006,77.982 241.322,78.509 241.367,79.145 246.071,78.563 			"/>
			<polygon points="246.441,80.144 241.474,80.172 241.471,80.737 246.464,80.663 			"/>
			<polygon points="246.518,81.76 241.581,82.311 241.638,82.873 246.596,82.274 			"/>
			<polygon points="246.693,84.272 241.556,83.903 241.601,84.486 246.754,84.758 			"/>
			<polygon points="246.609,86.163 241.638,85.941 241.59,86.577 246.59,86.748 			"/>
			<polygon points="246.638,88.285 241.554,87.525 241.468,88.083 246.585,88.801 			"/>
			<polygon points="246.6,90.203 241.35,89.969 241.325,90.533 246.604,90.723 			"/>
			<polygon points="246.686,92.714 240.95,92.345 241.001,92.928 246.754,93.2 			"/>
			<polygon points="246.592,94.605 241.043,94.383 240.988,95.019 246.57,95.19 			"/>
			<polygon points="246.625,96.726 240.948,95.967 240.852,96.525 246.566,97.243 			"/>
			<polygon points="246.6,98.645 241.35,98.41 241.325,98.975 246.604,99.165 			"/>
			<polygon points="246.686,101.59 240.95,101.221 241.001,101.804 246.754,102.076 			"/>
			<polygon points="246.592,103.481 241.043,103.259 240.988,103.895 246.57,104.066 			"/>
			<polygon points="246.625,105.602 240.948,104.843 240.852,105.401 246.566,106.119 			"/>
			<polygon points="246.6,107.521 241.35,107.286 241.325,107.851 246.604,108.041 			"/>
			<polygon points="246.693,110.467 241.556,110.098 241.601,110.681 246.754,110.954 			"/>
			<polygon points="246.592,112.358 241.043,112.136 240.988,112.772 246.57,112.943 			"/>
			<polygon points="246.625,114.48 240.948,113.72 240.852,114.279 246.566,114.996 			"/>
			<polygon points="246.582,116.399 240.721,116.164 240.693,116.728 246.586,116.918 			"/>
			<polygon points="246.686,118.284 240.95,117.915 241.001,118.498 246.754,118.77 			"/>
			<polygon points="246.592,120.175 241.043,119.953 240.988,120.589 246.57,120.76 			"/>
			<polygon points="246.625,122.296 240.948,121.537 240.852,122.095 246.566,122.813 			"/>
			<polygon points="246.6,124.215 240.356,123.793 240.331,124.358 246.604,124.735 			"/>
		</g>
		<g>
			<polygon fill="#FFFFFF" points="240.364,10.231 246.132,10.231 247.156,31.815 246.754,39.815 246.754,53.505 246.754,58.761 
				246.464,64.826 246.464,69.69 246.071,74.377 240.852,74.377 240.343,63.021 241.593,58.502 241.322,44.127 241.322,35.41 
				240.718,27.226 			"/>
			<polygon points="241.093,23.002 241.843,31.877 241.468,40.377 241.468,44.627 241.468,49.752 241.468,53.877 241.843,57.377 
				241.093,63.752 241.468,70.127 241.047,74.377 239.547,74.377 239.968,69.502 239.843,64.627 239.843,61.752 240.718,58.002 
				240.718,55.252 240.718,52.502 240.718,46.002 240.718,41.002 240.718,35.627 240.718,31.377 239.593,23.002 			"/>
			<polygon points="246.843,23.002 247.593,31.877 247.218,40.377 247.218,44.627 247.218,49.752 247.218,53.877 247.593,57.377 
				246.843,63.752 247.218,70.127 246.797,74.377 245.343,74.377 245.718,69.502 245.593,64.627 245.593,61.752 246.468,58.002 
				246.468,55.252 246.468,52.502 246.468,46.002 246.468,41.002 246.468,35.627 246.468,31.377 245.343,23.002 			"/>
			<polygon points="245.343,23.002 241.093,23.002 241.093,23.669 245.428,23.421 			"/>
			<polygon points="245.679,25.066 241.105,24.706 241.146,25.288 245.733,25.552 			"/>
			<polygon points="246.006,26.644 241.322,27.171 241.367,27.807 246.071,27.226 			"/>
			<polygon points="246.441,28.807 241.474,28.834 241.471,29.399 246.464,29.325 			"/>
			<polygon points="246.518,30.423 241.581,30.973 241.638,31.535 246.596,30.936 			"/>
			<polygon points="246.693,32.934 241.556,32.565 241.601,33.148 246.754,33.421 			"/>
			<polygon points="246.609,34.825 241.638,34.604 241.59,35.239 246.59,35.41 			"/>
			<polygon points="246.638,36.947 241.554,36.187 241.468,36.746 246.585,37.463 			"/>
			<polygon points="246.6,38.866 241.35,38.631 241.325,39.195 246.604,39.385 			"/>
			<polygon points="246.686,41.376 240.95,41.007 241.001,41.59 246.754,41.862 			"/>
			<polygon points="246.592,43.267 241.043,43.045 240.988,43.681 246.57,43.852 			"/>
			<polygon points="246.625,45.389 240.948,44.629 240.852,45.187 246.566,45.905 			"/>
			<polygon points="246.6,47.307 241.35,47.073 241.325,47.637 246.604,47.827 			"/>
			<polygon points="246.686,50.252 240.95,49.883 241.001,50.466 246.754,50.738 			"/>
			<polygon points="246.592,52.143 241.043,51.921 240.988,52.557 246.57,52.728 			"/>
			<polygon points="246.625,54.265 240.948,53.505 240.852,54.063 246.566,54.781 			"/>
			<polygon points="246.6,56.183 241.35,55.949 241.325,56.513 246.604,56.703 			"/>
			<polygon points="246.693,59.129 241.556,58.761 241.601,59.343 246.754,59.616 			"/>
			<polygon points="246.592,61.021 241.043,60.799 240.988,61.434 246.57,61.606 			"/>
			<polygon points="246.625,63.142 240.948,62.382 240.852,62.941 246.566,63.659 			"/>
			<polygon points="246.582,65.061 240.721,64.826 240.693,65.39 246.586,65.58 			"/>
			<polygon points="246.686,66.946 240.95,66.577 241.001,67.16 246.754,67.432 			"/>
			<polygon points="246.592,68.837 241.043,68.615 240.988,69.251 246.57,69.422 			"/>
			<polygon points="246.625,70.959 240.948,70.199 240.852,70.757 246.566,71.475 			"/>
			<polygon points="246.6,72.877 240.356,72.455 240.331,73.02 246.604,73.397 			"/>
		</g>
		<g>
			<polygon points="241.289,10.85 241.843,13.316 241.468,15.254 241.468,16.222 241.468,17.39 241.468,18.331 241.843,19.128 
				241.093,20.581 241.468,22.034 241.047,23.003 239.547,23.003 239.968,21.892 239.843,20.781 239.843,20.125 240.718,19.271 
				240.718,18.644 240.718,18.017 240.718,16.536 240.718,15.396 240.718,14.171 240.718,13.202 239.789,10.85 			"/>
			<polyline points="246.843,20.581 247.218,22.034 246.797,23.003 245.343,23.003 245.718,21.892 245.593,20.781 245.593,20.125 
				246.071,19.092 246.071,18.465 246.071,17.838 246.071,16.357 246.071,15.217 246.071,13.992 246.071,13.023 245.562,10.85 
				247.062,10.85 247.593,13.316 247.218,15.254 247.218,16.222 247.218,17.39 247.218,18.331 			"/>
			<polygon points="246.592,9.646 241.043,9.424 240.988,10.059 246.57,10.231 			"/>
			<polygon points="246.625,11.767 240.948,11.007 240.852,11.566 246.566,12.284 			"/>
			<polygon points="246.582,13.686 240.721,13.451 240.693,14.015 246.586,14.205 			"/>
			<polygon points="246.686,15.571 240.95,15.202 241.001,15.785 246.754,16.057 			"/>
			<polygon points="246.592,17.462 241.043,17.24 240.988,17.876 246.57,18.047 			"/>
			<polygon points="246.625,19.584 240.948,18.824 240.852,19.382 246.566,20.1 			"/>
			<polygon points="246.6,21.502 240.356,21.08 240.331,21.645 246.604,22.022 			"/>
		</g>
		<polygon fill="#FFFFFF" points="246.071,382.59 240.852,382.59 239.466,384.136 239.466,388.386 240.695,388.956 245.343,388.956 
			245.945,387.096 		"/>
		<polygon points="246.797,382.59 246.468,385.362 246.633,388.386 245.945,389.797 244.155,390.199 241.325,389.797 
			239.466,389.886 239.466,388.386 241.325,388.112 243.968,388.471 245.07,388.112 245.343,385.237 245.343,382.59 		"/>
		<polygon points="241.047,382.59 240.95,384.136 239.466,384.136 239.466,382.636 239.547,382.59 		"/>
		<polygon points="240.852,388.302 240.852,384.052 240.186,384.052 240.433,388.386 		"/>
		<polygon points="245.383,388.182 240.847,383.646 240.376,384.118 245.176,388.568 		"/>
		<polygon points="245.69,382.855 240.712,382.855 240.712,383.521 245.789,383.274 		"/>
		<g>
			<polygon fill="#FFFFFF" points="239.766,4.245 239.766,9.463 241.312,10.85 245.562,10.85 246.132,9.621 246.132,4.972 
				244.272,4.371 			"/>
			<polygon points="239.766,3.519 242.538,3.847 245.562,3.683 246.973,4.371 247.375,6.161 246.973,8.991 247.062,10.85 
				245.562,10.85 245.288,8.991 245.646,6.348 245.288,5.246 242.413,4.972 239.766,4.972 			"/>
			<polygon points="239.766,9.269 241.312,9.365 241.312,10.85 239.812,10.85 239.766,10.769 			"/>
			<polygon points="245.478,9.463 241.228,9.463 241.228,10.13 245.562,9.882 			"/>
			<polygon points="245.358,4.933 240.822,9.469 241.293,9.94 245.744,5.139 			"/>
			<polygon points="240.03,4.626 240.03,9.604 240.697,9.604 240.449,4.527 			"/>
		</g>
	</g>
</g>
</svg>
